<svg version="1.1" xmlns="http://www.w3.org/2000/svg" xmlns:xlink="http://www.w3.org/1999/xlink" width="372" height="300"><defs/><g><text fill="#eeeeee" stroke="none" font-family="Arial" font-size="24px" font-style="normal" font-weight="normal" text-decoration="none" x="0" y="0">UNREGISTERED</text><text fill="#eeeeee" stroke="none" font-family="Arial" font-size="24px" font-style="normal" font-weight="normal" text-decoration="none" x="0" y="30">UNREGISTERED</text><text fill="#eeeeee" stroke="none" font-family="Arial" font-size="24px" font-style="normal" font-weight="normal" text-decoration="none" x="0" y="60">UNREGISTERED</text><text fill="#eeeeee" stroke="none" font-family="Arial" font-size="24px" font-style="normal" font-weight="normal" text-decoration="none" x="0" y="90">UNREGISTERED</text><text fill="#eeeeee" stroke="none" font-family="Arial" font-size="24px" font-style="normal" font-weight="normal" text-decoration="none" x="0" y="120">UNREGISTERED</text><text fill="#eeeeee" stroke="none" font-family="Arial" font-size="24px" font-style="normal" font-weight="normal" text-decoration="none" x="0" y="150">UNREGISTERED</text><text fill="#eeeeee" stroke="none" font-family="Arial" font-size="24px" font-style="normal" font-weight="normal" text-decoration="none" x="0" y="180">UNREGISTERED</text><text fill="#eeeeee" stroke="none" font-family="Arial" font-size="24px" font-style="normal" font-weight="normal" text-decoration="none" x="0" y="210">UNREGISTERED</text><text fill="#eeeeee" stroke="none" font-family="Arial" font-size="24px" font-style="normal" font-weight="normal" text-decoration="none" x="0" y="240">UNREGISTERED</text><text fill="#eeeeee" stroke="none" font-family="Arial" font-size="24px" font-style="normal" font-weight="normal" text-decoration="none" x="0" y="270">UNREGISTERED</text><text fill="#eeeeee" stroke="none" font-family="Arial" font-size="24px" font-style="normal" font-weight="normal" text-decoration="none" x="200" y="0">UNREGISTERED</text><text fill="#eeeeee" stroke="none" font-family="Arial" font-size="24px" font-style="normal" font-weight="normal" text-decoration="none" x="200" y="30">UNREGISTERED</text><text fill="#eeeeee" stroke="none" font-family="Arial" font-size="24px" font-style="normal" font-weight="normal" text-decoration="none" x="200" y="60">UNREGISTERED</text><text fill="#eeeeee" stroke="none" font-family="Arial" font-size="24px" font-style="normal" font-weight="normal" text-decoration="none" x="200" y="90">UNREGISTERED</text><text fill="#eeeeee" stroke="none" font-family="Arial" font-size="24px" font-style="normal" font-weight="normal" text-decoration="none" x="200" y="120">UNREGISTERED</text><text fill="#eeeeee" stroke="none" font-family="Arial" font-size="24px" font-style="normal" font-weight="normal" text-decoration="none" x="200" y="150">UNREGISTERED</text><text fill="#eeeeee" stroke="none" font-family="Arial" font-size="24px" font-style="normal" font-weight="normal" text-decoration="none" x="200" y="180">UNREGISTERED</text><text fill="#eeeeee" stroke="none" font-family="Arial" font-size="24px" font-style="normal" font-weight="normal" text-decoration="none" x="200" y="210">UNREGISTERED</text><text fill="#eeeeee" stroke="none" font-family="Arial" font-size="24px" font-style="normal" font-weight="normal" text-decoration="none" x="200" y="240">UNREGISTERED</text><text fill="#eeeeee" stroke="none" font-family="Arial" font-size="24px" font-style="normal" font-weight="normal" text-decoration="none" x="200" y="270">UNREGISTERED</text><g transform="translate(-278,-110) scale(1,1)"><rect fill="#C0C0C0" stroke="none" x="295" y="127" width="140.8" height="15" opacity="0.2"/></g><g transform="translate(-278,-110) scale(1,1)"><rect fill="#C0C0C0" stroke="none" x="295" y="141" width="352" height="266" opacity="0.2"/></g><g transform="translate(-278,-110) scale(1,1)"><rect fill="#ffffff" stroke="none" x="288" y="135" width="352" height="265"/></g><g transform="translate(-278,-110) scale(1,1)"><path fill="none" stroke="#000000" d="M 288 135 L 640 135 L 640 400 L 288 400 L 288 135 Z Z" stroke-miterlimit="10"/></g><g transform="translate(-278,-110) scale(1,1)"><rect fill="#ffffff" stroke="none" x="288" y="120" width="140.8" height="15"/></g><g transform="translate(-278,-110) scale(1,1)"><path fill="none" stroke="#000000" d="M 288 120 L 428.8 120 L 428.8 135 L 288 135 L 288 120 Z Z" stroke-miterlimit="10"/></g><g transform="translate(-278,-110) scale(1,1)"><rect fill="#ffffff" stroke="none" x="288" y="134" width="352" height="266"/></g><g transform="translate(-278,-110) scale(1,1)"><path fill="none" stroke="#000000" d="M 288 134 L 640 134 L 640 400 L 288 400 L 288 134 Z Z" stroke-miterlimit="10"/></g><g transform="translate(-278,-110) scale(1,1)"><g><path fill="none" stroke="none"/><text fill="#000000" stroke="none" font-family="Arial" font-size="13px" font-style="normal" font-weight="bold" text-decoration="none" x="439.06640625" y="154.5">launcher</text></g></g><g transform="translate(-278,-110) scale(1,1)"><rect fill="#C0C0C0" stroke="none" x="391" y="223" width="127.12353515625" height="57" opacity="0.2"/></g><g transform="translate(-278,-110) scale(1,1)"><rect fill="#ffffff" stroke="none" x="384" y="216" width="127.12353515625" height="57"/></g><g transform="translate(-278,-110) scale(1,1)"><path fill="none" stroke="#000000" d="M 384 216 L 511.12353515625 216 L 511.12353515625 273 L 384 273 L 384 216 Z Z" stroke-miterlimit="10"/></g><g transform="translate(-278,-110) scale(1,1)"><path fill="none" stroke="#000000" d="M 384 241 L 511.12353515625 241" stroke-miterlimit="10"/></g><g transform="translate(-278,-110) scale(1,1)"><path fill="none" stroke="#000000" d="M 384 251 L 511.12353515625 251" stroke-miterlimit="10"/></g><g transform="translate(-278,-110) scale(1,1)"><g><path fill="none" stroke="none"/><text fill="#000000" stroke="none" font-family="Arial" font-size="13px" font-style="normal" font-weight="bold" text-decoration="none" x="420.457275390625" y="235.5">Launcher</text></g></g><g transform="translate(-278,-110) scale(1,1)"><g><path fill="none" stroke="none"/><text fill="#000000" stroke="none" font-family="Arial" font-size="13px" font-style="normal" font-weight="normal" text-decoration="none" x="389" y="268.5">+main(args: String[])</text><path fill="none" stroke="#000000" d="M 389 268.5 L 507.12353515625 268.5" stroke-miterlimit="10"/></g></g></g></svg>