<svg version="1.1" xmlns="http://www.w3.org/2000/svg" xmlns:xlink="http://www.w3.org/1999/xlink" width="1524" height="531"><defs/><g><text fill="#eeeeee" stroke="none" font-family="Arial" font-size="24px" font-style="normal" font-weight="normal" text-decoration="none" x="0" y="0">UNREGISTERED</text><text fill="#eeeeee" stroke="none" font-family="Arial" font-size="24px" font-style="normal" font-weight="normal" text-decoration="none" x="0" y="30">UNREGISTERED</text><text fill="#eeeeee" stroke="none" font-family="Arial" font-size="24px" font-style="normal" font-weight="normal" text-decoration="none" x="0" y="60">UNREGISTERED</text><text fill="#eeeeee" stroke="none" font-family="Arial" font-size="24px" font-style="normal" font-weight="normal" text-decoration="none" x="0" y="90">UNREGISTERED</text><text fill="#eeeeee" stroke="none" font-family="Arial" font-size="24px" font-style="normal" font-weight="normal" text-decoration="none" x="0" y="120">UNREGISTERED</text><text fill="#eeeeee" stroke="none" font-family="Arial" font-size="24px" font-style="normal" font-weight="normal" text-decoration="none" x="0" y="150">UNREGISTERED</text><text fill="#eeeeee" stroke="none" font-family="Arial" font-size="24px" font-style="normal" font-weight="normal" text-decoration="none" x="0" y="180">UNREGISTERED</text><text fill="#eeeeee" stroke="none" font-family="Arial" font-size="24px" font-style="normal" font-weight="normal" text-decoration="none" x="0" y="210">UNREGISTERED</text><text fill="#eeeeee" stroke="none" font-family="Arial" font-size="24px" font-style="normal" font-weight="normal" text-decoration="none" x="0" y="240">UNREGISTERED</text><text fill="#eeeeee" stroke="none" font-family="Arial" font-size="24px" font-style="normal" font-weight="normal" text-decoration="none" x="0" y="270">UNREGISTERED</text><text fill="#eeeeee" stroke="none" font-family="Arial" font-size="24px" font-style="normal" font-weight="normal" text-decoration="none" x="0" y="300">UNREGISTERED</text><text fill="#eeeeee" stroke="none" font-family="Arial" font-size="24px" font-style="normal" font-weight="normal" text-decoration="none" x="0" y="330">UNREGISTERED</text><text fill="#eeeeee" stroke="none" font-family="Arial" font-size="24px" font-style="normal" font-weight="normal" text-decoration="none" x="0" y="360">UNREGISTERED</text><text fill="#eeeeee" stroke="none" font-family="Arial" font-size="24px" font-style="normal" font-weight="normal" text-decoration="none" x="0" y="390">UNREGISTERED</text><text fill="#eeeeee" stroke="none" font-family="Arial" font-size="24px" font-style="normal" font-weight="normal" text-decoration="none" x="0" y="420">UNREGISTERED</text><text fill="#eeeeee" stroke="none" font-family="Arial" font-size="24px" font-style="normal" font-weight="normal" text-decoration="none" x="0" y="450">UNREGISTERED</text><text fill="#eeeeee" stroke="none" font-family="Arial" font-size="24px" font-style="normal" font-weight="normal" text-decoration="none" x="0" y="480">UNREGISTERED</text><text fill="#eeeeee" stroke="none" font-family="Arial" font-size="24px" font-style="normal" font-weight="normal" text-decoration="none" x="0" y="510">UNREGISTERED</text><text fill="#eeeeee" stroke="none" font-family="Arial" font-size="24px" font-style="normal" font-weight="normal" text-decoration="none" x="200" y="0">UNREGISTERED</text><text fill="#eeeeee" stroke="none" font-family="Arial" font-size="24px" font-style="normal" font-weight="normal" text-decoration="none" x="200" y="30">UNREGISTERED</text><text fill="#eeeeee" stroke="none" font-family="Arial" font-size="24px" font-style="normal" font-weight="normal" text-decoration="none" x="200" y="60">UNREGISTERED</text><text fill="#eeeeee" stroke="none" font-family="Arial" font-size="24px" font-style="normal" font-weight="normal" text-decoration="none" x="200" y="90">UNREGISTERED</text><text fill="#eeeeee" stroke="none" font-family="Arial" font-size="24px" font-style="normal" font-weight="normal" text-decoration="none" x="200" y="120">UNREGISTERED</text><text fill="#eeeeee" stroke="none" font-family="Arial" font-size="24px" font-style="normal" font-weight="normal" text-decoration="none" x="200" y="150">UNREGISTERED</text><text fill="#eeeeee" stroke="none" font-family="Arial" font-size="24px" font-style="normal" font-weight="normal" text-decoration="none" x="200" y="180">UNREGISTERED</text><text fill="#eeeeee" stroke="none" font-family="Arial" font-size="24px" font-style="normal" font-weight="normal" text-decoration="none" x="200" y="210">UNREGISTERED</text><text fill="#eeeeee" stroke="none" font-family="Arial" font-size="24px" font-style="normal" font-weight="normal" text-decoration="none" x="200" y="240">UNREGISTERED</text><text fill="#eeeeee" stroke="none" font-family="Arial" font-size="24px" font-style="normal" font-weight="normal" text-decoration="none" x="200" y="270">UNREGISTERED</text><text fill="#eeeeee" stroke="none" font-family="Arial" font-size="24px" font-style="normal" font-weight="normal" text-decoration="none" x="200" y="300">UNREGISTERED</text><text fill="#eeeeee" stroke="none" font-family="Arial" font-size="24px" font-style="normal" font-weight="normal" text-decoration="none" x="200" y="330">UNREGISTERED</text><text fill="#eeeeee" stroke="none" font-family="Arial" font-size="24px" font-style="normal" font-weight="normal" text-decoration="none" x="200" y="360">UNREGISTERED</text><text fill="#eeeeee" stroke="none" font-family="Arial" font-size="24px" font-style="normal" font-weight="normal" text-decoration="none" x="200" y="390">UNREGISTERED</text><text fill="#eeeeee" stroke="none" font-family="Arial" font-size="24px" font-style="normal" font-weight="normal" text-decoration="none" x="200" y="420">UNREGISTERED</text><text fill="#eeeeee" stroke="none" font-family="Arial" font-size="24px" font-style="normal" font-weight="normal" text-decoration="none" x="200" y="450">UNREGISTERED</text><text fill="#eeeeee" stroke="none" font-family="Arial" font-size="24px" font-style="normal" font-weight="normal" text-decoration="none" x="200" y="480">UNREGISTERED</text><text fill="#eeeeee" stroke="none" font-family="Arial" font-size="24px" font-style="normal" font-weight="normal" text-decoration="none" x="200" y="510">UNREGISTERED</text><text fill="#eeeeee" stroke="none" font-family="Arial" font-size="24px" font-style="normal" font-weight="normal" text-decoration="none" x="400" y="0">UNREGISTERED</text><text fill="#eeeeee" stroke="none" font-family="Arial" font-size="24px" font-style="normal" font-weight="normal" text-decoration="none" x="400" y="30">UNREGISTERED</text><text fill="#eeeeee" stroke="none" font-family="Arial" font-size="24px" font-style="normal" font-weight="normal" text-decoration="none" x="400" y="60">UNREGISTERED</text><text fill="#eeeeee" stroke="none" font-family="Arial" font-size="24px" font-style="normal" font-weight="normal" text-decoration="none" x="400" y="90">UNREGISTERED</text><text fill="#eeeeee" stroke="none" font-family="Arial" font-size="24px" font-style="normal" font-weight="normal" text-decoration="none" x="400" y="120">UNREGISTERED</text><text fill="#eeeeee" stroke="none" font-family="Arial" font-size="24px" font-style="normal" font-weight="normal" text-decoration="none" x="400" y="150">UNREGISTERED</text><text fill="#eeeeee" stroke="none" font-family="Arial" font-size="24px" font-style="normal" font-weight="normal" text-decoration="none" x="400" y="180">UNREGISTERED</text><text fill="#eeeeee" stroke="none" font-family="Arial" font-size="24px" font-style="normal" font-weight="normal" text-decoration="none" x="400" y="210">UNREGISTERED</text><text fill="#eeeeee" stroke="none" font-family="Arial" font-size="24px" font-style="normal" font-weight="normal" text-decoration="none" x="400" y="240">UNREGISTERED</text><text fill="#eeeeee" stroke="none" font-family="Arial" font-size="24px" font-style="normal" font-weight="normal" text-decoration="none" x="400" y="270">UNREGISTERED</text><text fill="#eeeeee" stroke="none" font-family="Arial" font-size="24px" font-style="normal" font-weight="normal" text-decoration="none" x="400" y="300">UNREGISTERED</text><text fill="#eeeeee" stroke="none" font-family="Arial" font-size="24px" font-style="normal" font-weight="normal" text-decoration="none" x="400" y="330">UNREGISTERED</text><text fill="#eeeeee" stroke="none" font-family="Arial" font-size="24px" font-style="normal" font-weight="normal" text-decoration="none" x="400" y="360">UNREGISTERED</text><text fill="#eeeeee" stroke="none" font-family="Arial" font-size="24px" font-style="normal" font-weight="normal" text-decoration="none" x="400" y="390">UNREGISTERED</text><text fill="#eeeeee" stroke="none" font-family="Arial" font-size="24px" font-style="normal" font-weight="normal" text-decoration="none" x="400" y="420">UNREGISTERED</text><text fill="#eeeeee" stroke="none" font-family="Arial" font-size="24px" font-style="normal" font-weight="normal" text-decoration="none" x="400" y="450">UNREGISTERED</text><text fill="#eeeeee" stroke="none" font-family="Arial" font-size="24px" font-style="normal" font-weight="normal" text-decoration="none" x="400" y="480">UNREGISTERED</text><text fill="#eeeeee" stroke="none" font-family="Arial" font-size="24px" font-style="normal" font-weight="normal" text-decoration="none" x="400" y="510">UNREGISTERED</text><text fill="#eeeeee" stroke="none" font-family="Arial" font-size="24px" font-style="normal" font-weight="normal" text-decoration="none" x="600" y="0">UNREGISTERED</text><text fill="#eeeeee" stroke="none" font-family="Arial" font-size="24px" font-style="normal" font-weight="normal" text-decoration="none" x="600" y="30">UNREGISTERED</text><text fill="#eeeeee" stroke="none" font-family="Arial" font-size="24px" font-style="normal" font-weight="normal" text-decoration="none" x="600" y="60">UNREGISTERED</text><text fill="#eeeeee" stroke="none" font-family="Arial" font-size="24px" font-style="normal" font-weight="normal" text-decoration="none" x="600" y="90">UNREGISTERED</text><text fill="#eeeeee" stroke="none" font-family="Arial" font-size="24px" font-style="normal" font-weight="normal" text-decoration="none" x="600" y="120">UNREGISTERED</text><text fill="#eeeeee" stroke="none" font-family="Arial" font-size="24px" font-style="normal" font-weight="normal" text-decoration="none" x="600" y="150">UNREGISTERED</text><text fill="#eeeeee" stroke="none" font-family="Arial" font-size="24px" font-style="normal" font-weight="normal" text-decoration="none" x="600" y="180">UNREGISTERED</text><text fill="#eeeeee" stroke="none" font-family="Arial" font-size="24px" font-style="normal" font-weight="normal" text-decoration="none" x="600" y="210">UNREGISTERED</text><text fill="#eeeeee" stroke="none" font-family="Arial" font-size="24px" font-style="normal" font-weight="normal" text-decoration="none" x="600" y="240">UNREGISTERED</text><text fill="#eeeeee" stroke="none" font-family="Arial" font-size="24px" font-style="normal" font-weight="normal" text-decoration="none" x="600" y="270">UNREGISTERED</text><text fill="#eeeeee" stroke="none" font-family="Arial" font-size="24px" font-style="normal" font-weight="normal" text-decoration="none" x="600" y="300">UNREGISTERED</text><text fill="#eeeeee" stroke="none" font-family="Arial" font-size="24px" font-style="normal" font-weight="normal" text-decoration="none" x="600" y="330">UNREGISTERED</text><text fill="#eeeeee" stroke="none" font-family="Arial" font-size="24px" font-style="normal" font-weight="normal" text-decoration="none" x="600" y="360">UNREGISTERED</text><text fill="#eeeeee" stroke="none" font-family="Arial" font-size="24px" font-style="normal" font-weight="normal" text-decoration="none" x="600" y="390">UNREGISTERED</text><text fill="#eeeeee" stroke="none" font-family="Arial" font-size="24px" font-style="normal" font-weight="normal" text-decoration="none" x="600" y="420">UNREGISTERED</text><text fill="#eeeeee" stroke="none" font-family="Arial" font-size="24px" font-style="normal" font-weight="normal" text-decoration="none" x="600" y="450">UNREGISTERED</text><text fill="#eeeeee" stroke="none" font-family="Arial" font-size="24px" font-style="normal" font-weight="normal" text-decoration="none" x="600" y="480">UNREGISTERED</text><text fill="#eeeeee" stroke="none" font-family="Arial" font-size="24px" font-style="normal" font-weight="normal" text-decoration="none" x="600" y="510">UNREGISTERED</text><text fill="#eeeeee" stroke="none" font-family="Arial" font-size="24px" font-style="normal" font-weight="normal" text-decoration="none" x="800" y="0">UNREGISTERED</text><text fill="#eeeeee" stroke="none" font-family="Arial" font-size="24px" font-style="normal" font-weight="normal" text-decoration="none" x="800" y="30">UNREGISTERED</text><text fill="#eeeeee" stroke="none" font-family="Arial" font-size="24px" font-style="normal" font-weight="normal" text-decoration="none" x="800" y="60">UNREGISTERED</text><text fill="#eeeeee" stroke="none" font-family="Arial" font-size="24px" font-style="normal" font-weight="normal" text-decoration="none" x="800" y="90">UNREGISTERED</text><text fill="#eeeeee" stroke="none" font-family="Arial" font-size="24px" font-style="normal" font-weight="normal" text-decoration="none" x="800" y="120">UNREGISTERED</text><text fill="#eeeeee" stroke="none" font-family="Arial" font-size="24px" font-style="normal" font-weight="normal" text-decoration="none" x="800" y="150">UNREGISTERED</text><text fill="#eeeeee" stroke="none" font-family="Arial" font-size="24px" font-style="normal" font-weight="normal" text-decoration="none" x="800" y="180">UNREGISTERED</text><text fill="#eeeeee" stroke="none" font-family="Arial" font-size="24px" font-style="normal" font-weight="normal" text-decoration="none" x="800" y="210">UNREGISTERED</text><text fill="#eeeeee" stroke="none" font-family="Arial" font-size="24px" font-style="normal" font-weight="normal" text-decoration="none" x="800" y="240">UNREGISTERED</text><text fill="#eeeeee" stroke="none" font-family="Arial" font-size="24px" font-style="normal" font-weight="normal" text-decoration="none" x="800" y="270">UNREGISTERED</text><text fill="#eeeeee" stroke="none" font-family="Arial" font-size="24px" font-style="normal" font-weight="normal" text-decoration="none" x="800" y="300">UNREGISTERED</text><text fill="#eeeeee" stroke="none" font-family="Arial" font-size="24px" font-style="normal" font-weight="normal" text-decoration="none" x="800" y="330">UNREGISTERED</text><text fill="#eeeeee" stroke="none" font-family="Arial" font-size="24px" font-style="normal" font-weight="normal" text-decoration="none" x="800" y="360">UNREGISTERED</text><text fill="#eeeeee" stroke="none" font-family="Arial" font-size="24px" font-style="normal" font-weight="normal" text-decoration="none" x="800" y="390">UNREGISTERED</text><text fill="#eeeeee" stroke="none" font-family="Arial" font-size="24px" font-style="normal" font-weight="normal" text-decoration="none" x="800" y="420">UNREGISTERED</text><text fill="#eeeeee" stroke="none" font-family="Arial" font-size="24px" font-style="normal" font-weight="normal" text-decoration="none" x="800" y="450">UNREGISTERED</text><text fill="#eeeeee" stroke="none" font-family="Arial" font-size="24px" font-style="normal" font-weight="normal" text-decoration="none" x="800" y="480">UNREGISTERED</text><text fill="#eeeeee" stroke="none" font-family="Arial" font-size="24px" font-style="normal" font-weight="normal" text-decoration="none" x="800" y="510">UNREGISTERED</text><text fill="#eeeeee" stroke="none" font-family="Arial" font-size="24px" font-style="normal" font-weight="normal" text-decoration="none" x="1000" y="0">UNREGISTERED</text><text fill="#eeeeee" stroke="none" font-family="Arial" font-size="24px" font-style="normal" font-weight="normal" text-decoration="none" x="1000" y="30">UNREGISTERED</text><text fill="#eeeeee" stroke="none" font-family="Arial" font-size="24px" font-style="normal" font-weight="normal" text-decoration="none" x="1000" y="60">UNREGISTERED</text><text fill="#eeeeee" stroke="none" font-family="Arial" font-size="24px" font-style="normal" font-weight="normal" text-decoration="none" x="1000" y="90">UNREGISTERED</text><text fill="#eeeeee" stroke="none" font-family="Arial" font-size="24px" font-style="normal" font-weight="normal" text-decoration="none" x="1000" y="120">UNREGISTERED</text><text fill="#eeeeee" stroke="none" font-family="Arial" font-size="24px" font-style="normal" font-weight="normal" text-decoration="none" x="1000" y="150">UNREGISTERED</text><text fill="#eeeeee" stroke="none" font-family="Arial" font-size="24px" font-style="normal" font-weight="normal" text-decoration="none" x="1000" y="180">UNREGISTERED</text><text fill="#eeeeee" stroke="none" font-family="Arial" font-size="24px" font-style="normal" font-weight="normal" text-decoration="none" x="1000" y="210">UNREGISTERED</text><text fill="#eeeeee" stroke="none" font-family="Arial" font-size="24px" font-style="normal" font-weight="normal" text-decoration="none" x="1000" y="240">UNREGISTERED</text><text fill="#eeeeee" stroke="none" font-family="Arial" font-size="24px" font-style="normal" font-weight="normal" text-decoration="none" x="1000" y="270">UNREGISTERED</text><text fill="#eeeeee" stroke="none" font-family="Arial" font-size="24px" font-style="normal" font-weight="normal" text-decoration="none" x="1000" y="300">UNREGISTERED</text><text fill="#eeeeee" stroke="none" font-family="Arial" font-size="24px" font-style="normal" font-weight="normal" text-decoration="none" x="1000" y="330">UNREGISTERED</text><text fill="#eeeeee" stroke="none" font-family="Arial" font-size="24px" font-style="normal" font-weight="normal" text-decoration="none" x="1000" y="360">UNREGISTERED</text><text fill="#eeeeee" stroke="none" font-family="Arial" font-size="24px" font-style="normal" font-weight="normal" text-decoration="none" x="1000" y="390">UNREGISTERED</text><text fill="#eeeeee" stroke="none" font-family="Arial" font-size="24px" font-style="normal" font-weight="normal" text-decoration="none" x="1000" y="420">UNREGISTERED</text><text fill="#eeeeee" stroke="none" font-family="Arial" font-size="24px" font-style="normal" font-weight="normal" text-decoration="none" x="1000" y="450">UNREGISTERED</text><text fill="#eeeeee" stroke="none" font-family="Arial" font-size="24px" font-style="normal" font-weight="normal" text-decoration="none" x="1000" y="480">UNREGISTERED</text><text fill="#eeeeee" stroke="none" font-family="Arial" font-size="24px" font-style="normal" font-weight="normal" text-decoration="none" x="1000" y="510">UNREGISTERED</text><text fill="#eeeeee" stroke="none" font-family="Arial" font-size="24px" font-style="normal" font-weight="normal" text-decoration="none" x="1200" y="0">UNREGISTERED</text><text fill="#eeeeee" stroke="none" font-family="Arial" font-size="24px" font-style="normal" font-weight="normal" text-decoration="none" x="1200" y="30">UNREGISTERED</text><text fill="#eeeeee" stroke="none" font-family="Arial" font-size="24px" font-style="normal" font-weight="normal" text-decoration="none" x="1200" y="60">UNREGISTERED</text><text fill="#eeeeee" stroke="none" font-family="Arial" font-size="24px" font-style="normal" font-weight="normal" text-decoration="none" x="1200" y="90">UNREGISTERED</text><text fill="#eeeeee" stroke="none" font-family="Arial" font-size="24px" font-style="normal" font-weight="normal" text-decoration="none" x="1200" y="120">UNREGISTERED</text><text fill="#eeeeee" stroke="none" font-family="Arial" font-size="24px" font-style="normal" font-weight="normal" text-decoration="none" x="1200" y="150">UNREGISTERED</text><text fill="#eeeeee" stroke="none" font-family="Arial" font-size="24px" font-style="normal" font-weight="normal" text-decoration="none" x="1200" y="180">UNREGISTERED</text><text fill="#eeeeee" stroke="none" font-family="Arial" font-size="24px" font-style="normal" font-weight="normal" text-decoration="none" x="1200" y="210">UNREGISTERED</text><text fill="#eeeeee" stroke="none" font-family="Arial" font-size="24px" font-style="normal" font-weight="normal" text-decoration="none" x="1200" y="240">UNREGISTERED</text><text fill="#eeeeee" stroke="none" font-family="Arial" font-size="24px" font-style="normal" font-weight="normal" text-decoration="none" x="1200" y="270">UNREGISTERED</text><text fill="#eeeeee" stroke="none" font-family="Arial" font-size="24px" font-style="normal" font-weight="normal" text-decoration="none" x="1200" y="300">UNREGISTERED</text><text fill="#eeeeee" stroke="none" font-family="Arial" font-size="24px" font-style="normal" font-weight="normal" text-decoration="none" x="1200" y="330">UNREGISTERED</text><text fill="#eeeeee" stroke="none" font-family="Arial" font-size="24px" font-style="normal" font-weight="normal" text-decoration="none" x="1200" y="360">UNREGISTERED</text><text fill="#eeeeee" stroke="none" font-family="Arial" font-size="24px" font-style="normal" font-weight="normal" text-decoration="none" x="1200" y="390">UNREGISTERED</text><text fill="#eeeeee" stroke="none" font-family="Arial" font-size="24px" font-style="normal" font-weight="normal" text-decoration="none" x="1200" y="420">UNREGISTERED</text><text fill="#eeeeee" stroke="none" font-family="Arial" font-size="24px" font-style="normal" font-weight="normal" text-decoration="none" x="1200" y="450">UNREGISTERED</text><text fill="#eeeeee" stroke="none" font-family="Arial" font-size="24px" font-style="normal" font-weight="normal" text-decoration="none" x="1200" y="480">UNREGISTERED</text><text fill="#eeeeee" stroke="none" font-family="Arial" font-size="24px" font-style="normal" font-weight="normal" text-decoration="none" x="1200" y="510">UNREGISTERED</text><text fill="#eeeeee" stroke="none" font-family="Arial" font-size="24px" font-style="normal" font-weight="normal" text-decoration="none" x="1400" y="0">UNREGISTERED</text><text fill="#eeeeee" stroke="none" font-family="Arial" font-size="24px" font-style="normal" font-weight="normal" text-decoration="none" x="1400" y="30">UNREGISTERED</text><text fill="#eeeeee" stroke="none" font-family="Arial" font-size="24px" font-style="normal" font-weight="normal" text-decoration="none" x="1400" y="60">UNREGISTERED</text><text fill="#eeeeee" stroke="none" font-family="Arial" font-size="24px" font-style="normal" font-weight="normal" text-decoration="none" x="1400" y="90">UNREGISTERED</text><text fill="#eeeeee" stroke="none" font-family="Arial" font-size="24px" font-style="normal" font-weight="normal" text-decoration="none" x="1400" y="120">UNREGISTERED</text><text fill="#eeeeee" stroke="none" font-family="Arial" font-size="24px" font-style="normal" font-weight="normal" text-decoration="none" x="1400" y="150">UNREGISTERED</text><text fill="#eeeeee" stroke="none" font-family="Arial" font-size="24px" font-style="normal" font-weight="normal" text-decoration="none" x="1400" y="180">UNREGISTERED</text><text fill="#eeeeee" stroke="none" font-family="Arial" font-size="24px" font-style="normal" font-weight="normal" text-decoration="none" x="1400" y="210">UNREGISTERED</text><text fill="#eeeeee" stroke="none" font-family="Arial" font-size="24px" font-style="normal" font-weight="normal" text-decoration="none" x="1400" y="240">UNREGISTERED</text><text fill="#eeeeee" stroke="none" font-family="Arial" font-size="24px" font-style="normal" font-weight="normal" text-decoration="none" x="1400" y="270">UNREGISTERED</text><text fill="#eeeeee" stroke="none" font-family="Arial" font-size="24px" font-style="normal" font-weight="normal" text-decoration="none" x="1400" y="300">UNREGISTERED</text><text fill="#eeeeee" stroke="none" font-family="Arial" font-size="24px" font-style="normal" font-weight="normal" text-decoration="none" x="1400" y="330">UNREGISTERED</text><text fill="#eeeeee" stroke="none" font-family="Arial" font-size="24px" font-style="normal" font-weight="normal" text-decoration="none" x="1400" y="360">UNREGISTERED</text><text fill="#eeeeee" stroke="none" font-family="Arial" font-size="24px" font-style="normal" font-weight="normal" text-decoration="none" x="1400" y="390">UNREGISTERED</text><text fill="#eeeeee" stroke="none" font-family="Arial" font-size="24px" font-style="normal" font-weight="normal" text-decoration="none" x="1400" y="420">UNREGISTERED</text><text fill="#eeeeee" stroke="none" font-family="Arial" font-size="24px" font-style="normal" font-weight="normal" text-decoration="none" x="1400" y="450">UNREGISTERED</text><text fill="#eeeeee" stroke="none" font-family="Arial" font-size="24px" font-style="normal" font-weight="normal" text-decoration="none" x="1400" y="480">UNREGISTERED</text><text fill="#eeeeee" stroke="none" font-family="Arial" font-size="24px" font-style="normal" font-weight="normal" text-decoration="none" x="1400" y="510">UNREGISTERED</text><g transform="translate(-22,-102) scale(1,1)"><rect fill="#C0C0C0" stroke="none" x="39" y="119" width="601.6" height="15" opacity="0.2"/></g><g transform="translate(-22,-102) scale(1,1)"><rect fill="#C0C0C0" stroke="none" x="39" y="133" width="1504" height="497" opacity="0.2"/></g><g transform="translate(-22,-102) scale(1,1)"><rect fill="#ffffff" stroke="none" x="32" y="127" width="1504" height="496"/></g><g transform="translate(-22,-102) scale(1,1)"><path fill="none" stroke="#000000" d="M 32 127 L 1536 127 L 1536 623 L 32 623 L 32 127 Z Z" stroke-miterlimit="10"/></g><g transform="translate(-22,-102) scale(1,1)"><rect fill="#ffffff" stroke="none" x="32" y="112" width="601.6" height="15"/></g><g transform="translate(-22,-102) scale(1,1)"><path fill="none" stroke="#000000" d="M 32 112 L 633.6 112 L 633.6 127 L 32 127 L 32 112 Z Z" stroke-miterlimit="10"/></g><g transform="translate(-22,-102) scale(1,1)"><rect fill="#ffffff" stroke="none" x="32" y="126" width="1504" height="497"/></g><g transform="translate(-22,-102) scale(1,1)"><path fill="none" stroke="#000000" d="M 32 126 L 1536 126 L 1536 623 L 32 623 L 32 126 Z Z" stroke-miterlimit="10"/></g><g transform="translate(-22,-102) scale(1,1)"><g><path fill="none" stroke="none"/><text fill="#000000" stroke="none" font-family="Arial" font-size="13px" font-style="normal" font-weight="bold" text-decoration="none" x="739.20458984375" y="146.5">comportements</text></g></g><g transform="translate(-22,-102) scale(1,1)"><rect fill="#C0C0C0" stroke="none" x="423" y="199" width="207.3642578125" height="70" opacity="0.2"/></g><g transform="translate(-22,-102) scale(1,1)"><rect fill="#ffffff" stroke="none" x="416" y="192" width="207.3642578125" height="70"/></g><g transform="translate(-22,-102) scale(1,1)"><path fill="none" stroke="#000000" d="M 416 192 L 623.3642578125 192 L 623.3642578125 262 L 416 262 L 416 192 Z Z" stroke-miterlimit="10"/></g><g transform="translate(-22,-102) scale(1,1)"><path fill="none" stroke="#000000" d="M 416 217 L 623.3642578125 217" stroke-miterlimit="10"/></g><g transform="translate(-22,-102) scale(1,1)"><path fill="none" stroke="#000000" d="M 416 240 L 623.3642578125 240" stroke-miterlimit="10"/></g><g transform="translate(-22,-102) scale(1,1)"><g><path fill="none" stroke="none"/><text fill="#000000" stroke="none" font-family="Arial" font-size="13px" font-style="normal" font-weight="bold" text-decoration="none" x="476.692626953125" y="211.5">Comportement</text></g></g><g transform="translate(-22,-102) scale(1,1)"><g><path fill="none" stroke="none"/><text fill="#000000" stroke="none" font-family="Arial" font-size="13px" font-style="normal" font-weight="normal" text-decoration="none" x="421" y="234.5">#tableauJeu: TableauJeu</text></g></g><g transform="translate(-22,-102) scale(1,1)"><g><path fill="none" stroke="none"/><text fill="#000000" stroke="none" font-family="Arial" font-size="13px" font-style="italic" font-weight="normal" text-decoration="none" x="421" y="257.5">+agit(entite: Entite, temps: double)</text></g></g><g transform="translate(-22,-102) scale(1,1)"><path fill="none" stroke="#000000" d="M 479 399 L 480 344 L 520 344 L 519 263" stroke-miterlimit="10"/></g><g transform="translate(-22,-102) scale(1,1)"><path fill="#FFFFFF" stroke="none" d="M 527.6693051111075 283.21987015018954 L 519 263 L 510.83251713432884 283.4277317301498"/></g><g transform="translate(-22,-102) scale(1,1)"><path fill="none" stroke="#000000" d="M 527.6693051111075 283.21987015018954 L 519 263 L 510.83251713432884 283.4277317301498 L 527.6693051111075 283.21987015018954" stroke-miterlimit="10"/></g><g transform="translate(-22,-102) scale(1,1)"><rect fill="#C0C0C0" stroke="none" x="599" y="399" width="214.39111328125" height="115" opacity="0.2"/></g><g transform="translate(-22,-102) scale(1,1)"><rect fill="#ffffff" stroke="none" x="592" y="392" width="214.39111328125" height="115"/></g><g transform="translate(-22,-102) scale(1,1)"><path fill="none" stroke="#000000" d="M 592 392 L 806.39111328125 392 L 806.39111328125 507 L 592 507 L 592 392 Z Z" stroke-miterlimit="10"/></g><g transform="translate(-22,-102) scale(1,1)"><path fill="none" stroke="#000000" d="M 592 417 L 806.39111328125 417" stroke-miterlimit="10"/></g><g transform="translate(-22,-102) scale(1,1)"><path fill="none" stroke="#000000" d="M 592 470 L 806.39111328125 470" stroke-miterlimit="10"/></g><g transform="translate(-22,-102) scale(1,1)"><g><path fill="none" stroke="none"/><text fill="#000000" stroke="none" font-family="Arial" font-size="13px" font-style="normal" font-weight="bold" text-decoration="none" x="602.85400390625" y="411.5">ComportementMarcheAvecChute</text></g></g><g transform="translate(-22,-102) scale(1,1)"><g><path fill="none" stroke="none"/><text fill="#000000" stroke="none" font-family="Arial" font-size="13px" font-style="normal" font-weight="normal" text-decoration="none" x="597" y="434.5">-deplaceur: AdaptateurDeplaceur</text></g></g><g transform="translate(-22,-102) scale(1,1)"><g><path fill="none" stroke="none"/><text fill="#000000" stroke="none" font-family="Arial" font-size="13px" font-style="normal" font-weight="normal" text-decoration="none" x="597" y="449.5">-dernierePosition: Position2D = null</text></g></g><g transform="translate(-22,-102) scale(1,1)"><g><path fill="none" stroke="none"/><text fill="#000000" stroke="none" font-family="Arial" font-size="13px" font-style="normal" font-weight="normal" text-decoration="none" x="597" y="464.5">-collisionneur: CollisionneurCarte</text></g></g><g transform="translate(-22,-102) scale(1,1)"><g><path fill="none" stroke="none"/><text fill="#000000" stroke="none" font-family="Arial" font-size="13px" font-style="normal" font-weight="normal" text-decoration="none" x="597" y="487.5">+agit(entite: Entite, temps: double)</text></g></g><g transform="translate(-22,-102) scale(1,1)"><g><path fill="none" stroke="none"/><text fill="#000000" stroke="none" font-family="Arial" font-size="13px" font-style="normal" font-weight="normal" text-decoration="none" x="597" y="502.5">-inverseDirection(entite: Entite)</text></g></g><g transform="translate(-22,-102) scale(1,1)"><path fill="none" stroke="#000000" d="M 697 391 L 696 344 L 520 344 L 519 263" stroke-miterlimit="10"/></g><g transform="translate(-22,-102) scale(1,1)"><path fill="#FFFFFF" stroke="none" d="M 527.6693051111075 283.21987015018954 L 519 263 L 510.83251713432884 283.4277317301498"/></g><g transform="translate(-22,-102) scale(1,1)"><path fill="none" stroke="#000000" d="M 527.6693051111075 283.21987015018954 L 519 263 L 510.83251713432884 283.4277317301498 L 527.6693051111075 283.21987015018954" stroke-miterlimit="10"/></g><g transform="translate(-22,-102) scale(1,1)"><rect fill="#C0C0C0" stroke="none" x="831" y="399" width="214.8671875" height="85" opacity="0.2"/></g><g transform="translate(-22,-102) scale(1,1)"><rect fill="#ffffff" stroke="none" x="824" y="392" width="214.8671875" height="85"/></g><g transform="translate(-22,-102) scale(1,1)"><path fill="none" stroke="#000000" d="M 824 392 L 1038.8671875 392 L 1038.8671875 477 L 824 477 L 824 392 Z Z" stroke-miterlimit="10"/></g><g transform="translate(-22,-102) scale(1,1)"><path fill="none" stroke="#000000" d="M 824 417 L 1038.8671875 417" stroke-miterlimit="10"/></g><g transform="translate(-22,-102) scale(1,1)"><path fill="none" stroke="#000000" d="M 824 455 L 1038.8671875 455" stroke-miterlimit="10"/></g><g transform="translate(-22,-102) scale(1,1)"><g><path fill="none" stroke="none"/><text fill="#000000" stroke="none" font-family="Arial" font-size="13px" font-style="normal" font-weight="bold" text-decoration="none" x="834.609619140625" y="411.5">ComportementMarcheSansChute</text></g></g><g transform="translate(-22,-102) scale(1,1)"><g><path fill="none" stroke="none"/><text fill="#000000" stroke="none" font-family="Arial" font-size="13px" font-style="normal" font-weight="normal" text-decoration="none" x="829" y="434.5">-deplaceur: AdaptateurDeplaceur</text></g></g><g transform="translate(-22,-102) scale(1,1)"><g><path fill="none" stroke="none"/><text fill="#000000" stroke="none" font-family="Arial" font-size="13px" font-style="normal" font-weight="normal" text-decoration="none" x="829" y="449.5">-collisionneur: CollisionneurCarte</text></g></g><g transform="translate(-22,-102) scale(1,1)"><g><path fill="none" stroke="none"/><text fill="#000000" stroke="none" font-family="Arial" font-size="13px" font-style="normal" font-weight="normal" text-decoration="none" x="829" y="472.5">+agit(entite: Entite, temps: double)</text></g></g><g transform="translate(-22,-102) scale(1,1)"><path fill="none" stroke="#000000" d="M 930 391 L 928 344 L 520 344 L 519 263" stroke-miterlimit="10"/></g><g transform="translate(-22,-102) scale(1,1)"><path fill="#FFFFFF" stroke="none" d="M 527.6693051111075 283.21987015018954 L 519 263 L 510.83251713432884 283.4277317301498"/></g><g transform="translate(-22,-102) scale(1,1)"><path fill="none" stroke="#000000" d="M 527.6693051111075 283.21987015018954 L 519 263 L 510.83251713432884 283.4277317301498 L 527.6693051111075 283.21987015018954" stroke-miterlimit="10"/></g><g transform="translate(-22,-102) scale(1,1)"><rect fill="#C0C0C0" stroke="none" x="47" y="399" width="324.3515625" height="100" opacity="0.2"/></g><g transform="translate(-22,-102) scale(1,1)"><rect fill="#ffffff" stroke="none" x="40" y="392" width="324.3515625" height="100"/></g><g transform="translate(-22,-102) scale(1,1)"><path fill="none" stroke="#000000" d="M 40 392 L 364.3515625 392 L 364.3515625 492 L 40 492 L 40 392 Z Z" stroke-miterlimit="10"/></g><g transform="translate(-22,-102) scale(1,1)"><path fill="none" stroke="#000000" d="M 40 417 L 364.3515625 417" stroke-miterlimit="10"/></g><g transform="translate(-22,-102) scale(1,1)"><path fill="none" stroke="#000000" d="M 40 470 L 364.3515625 470" stroke-miterlimit="10"/></g><g transform="translate(-22,-102) scale(1,1)"><g><path fill="none" stroke="none"/><text fill="#000000" stroke="none" font-family="Arial" font-size="13px" font-style="normal" font-weight="bold" text-decoration="none" x="133.535400390625" y="411.5">ComportementFantome</text></g></g><g transform="translate(-22,-102) scale(1,1)"><g><path fill="none" stroke="none"/><text fill="#000000" stroke="none" font-family="Arial" font-size="13px" font-style="normal" font-weight="normal" text-decoration="none" x="45" y="434.5">-NOMBRE_MAXIMUM_POSITIONS {frozen}: int = 500</text><path fill="none" stroke="#000000" d="M 45 434.5 L 360.3515625 434.5" stroke-miterlimit="10"/></g></g><g transform="translate(-22,-102) scale(1,1)"><g><path fill="none" stroke="none"/><text fill="#000000" stroke="none" font-family="Arial" font-size="13px" font-style="normal" font-weight="normal" text-decoration="none" x="45" y="449.5">-lesPositions: List&lt;Position2D&gt;</text></g></g><g transform="translate(-22,-102) scale(1,1)"><g><path fill="none" stroke="none"/><text fill="#000000" stroke="none" font-family="Arial" font-size="13px" font-style="normal" font-weight="normal" text-decoration="none" x="45" y="464.5">-nombrePositions: int</text></g></g><g transform="translate(-22,-102) scale(1,1)"><g><path fill="none" stroke="none"/><text fill="#000000" stroke="none" font-family="Arial" font-size="13px" font-style="normal" font-weight="normal" text-decoration="none" x="45" y="487.5">+agit(entite: Entite, temps: double)</text></g></g><g transform="translate(-22,-102) scale(1,1)"><path fill="none" stroke="#000000" d="M 201 391 L 200 344 L 520 344 L 519 263" stroke-miterlimit="10"/></g><g transform="translate(-22,-102) scale(1,1)"><path fill="#FFFFFF" stroke="none" d="M 527.6693051111075 283.21987015018954 L 519 263 L 510.83251713432884 283.4277317301498"/></g><g transform="translate(-22,-102) scale(1,1)"><path fill="none" stroke="#000000" d="M 527.6693051111075 283.21987015018954 L 519 263 L 510.83251713432884 283.4277317301498 L 527.6693051111075 283.21987015018954" stroke-miterlimit="10"/></g><g transform="translate(-22,-102) scale(1,1)"><rect fill="#C0C0C0" stroke="none" x="383" y="407" width="207.3642578125" height="57" opacity="0.2"/></g><g transform="translate(-22,-102) scale(1,1)"><rect fill="#ffffff" stroke="none" x="376" y="400" width="207.3642578125" height="57"/></g><g transform="translate(-22,-102) scale(1,1)"><path fill="none" stroke="#000000" d="M 376 400 L 583.3642578125 400 L 583.3642578125 457 L 376 457 L 376 400 Z Z" stroke-miterlimit="10"/></g><g transform="translate(-22,-102) scale(1,1)"><path fill="none" stroke="#000000" d="M 376 425 L 583.3642578125 425" stroke-miterlimit="10"/></g><g transform="translate(-22,-102) scale(1,1)"><path fill="none" stroke="#000000" d="M 376 435 L 583.3642578125 435" stroke-miterlimit="10"/></g><g transform="translate(-22,-102) scale(1,1)"><g><path fill="none" stroke="none"/><text fill="#000000" stroke="none" font-family="Arial" font-size="13px" font-style="normal" font-weight="bold" text-decoration="none" x="425.495361328125" y="419.5">ComportementNull</text></g></g><g transform="translate(-22,-102) scale(1,1)"><g><path fill="none" stroke="none"/><text fill="#000000" stroke="none" font-family="Arial" font-size="13px" font-style="normal" font-weight="normal" text-decoration="none" x="381" y="452.5">+agit(entite: Entite, temps: double)</text></g></g><g transform="translate(-22,-102) scale(1,1)"><rect fill="#C0C0C0" stroke="none" x="1055" y="399" width="251.658203125" height="85" opacity="0.2"/></g><g transform="translate(-22,-102) scale(1,1)"><rect fill="#ffffff" stroke="none" x="1048" y="392" width="251.658203125" height="85"/></g><g transform="translate(-22,-102) scale(1,1)"><path fill="none" stroke="#000000" d="M 1048 392 L 1299.658203125 392 L 1299.658203125 477 L 1048 477 L 1048 392 Z Z" stroke-miterlimit="10"/></g><g transform="translate(-22,-102) scale(1,1)"><path fill="none" stroke="#000000" d="M 1048 417 L 1299.658203125 417" stroke-miterlimit="10"/></g><g transform="translate(-22,-102) scale(1,1)"><path fill="none" stroke="#000000" d="M 1048 455 L 1299.658203125 455" stroke-miterlimit="10"/></g><g transform="translate(-22,-102) scale(1,1)"><g><path fill="none" stroke="none"/><text fill="#000000" stroke="none" font-family="Arial" font-size="13px" font-style="normal" font-weight="bold" text-decoration="none" x="1111.695068359375" y="411.5">ComportementArcher</text></g></g><g transform="translate(-22,-102) scale(1,1)"><g><path fill="none" stroke="none"/><text fill="#000000" stroke="none" font-family="Arial" font-size="13px" font-style="normal" font-weight="normal" text-decoration="none" x="1053" y="434.5">-delaiTirs: double</text></g></g><g transform="translate(-22,-102) scale(1,1)"><g><path fill="none" stroke="none"/><text fill="#000000" stroke="none" font-family="Arial" font-size="13px" font-style="normal" font-weight="normal" text-decoration="none" x="1053" y="449.5">-tempsDernierProjectile: double</text></g></g><g transform="translate(-22,-102) scale(1,1)"><g><path fill="none" stroke="none"/><text fill="#000000" stroke="none" font-family="Arial" font-size="13px" font-style="normal" font-weight="normal" text-decoration="none" x="1053" y="472.5">+agit(entite: Entite, temps: double)</text></g></g><g transform="translate(-22,-102) scale(1,1)"><rect fill="#C0C0C0" stroke="none" x="1319" y="399" width="207.3642578125" height="57" opacity="0.2"/></g><g transform="translate(-22,-102) scale(1,1)"><rect fill="#ffffff" stroke="none" x="1312" y="392" width="207.3642578125" height="57"/></g><g transform="translate(-22,-102) scale(1,1)"><path fill="none" stroke="#000000" d="M 1312 392 L 1519.3642578125 392 L 1519.3642578125 449 L 1312 449 L 1312 392 Z Z" stroke-miterlimit="10"/></g><g transform="translate(-22,-102) scale(1,1)"><path fill="none" stroke="#000000" d="M 1312 417 L 1519.3642578125 417" stroke-miterlimit="10"/></g><g transform="translate(-22,-102) scale(1,1)"><path fill="none" stroke="#000000" d="M 1312 427 L 1519.3642578125 427" stroke-miterlimit="10"/></g><g transform="translate(-22,-102) scale(1,1)"><g><path fill="none" stroke="none"/><text fill="#000000" stroke="none" font-family="Arial" font-size="13px" font-style="normal" font-weight="bold" text-decoration="none" x="1337.539306640625" y="411.5">ComportementMarcheEtTir</text></g></g><g transform="translate(-22,-102) scale(1,1)"><g><path fill="none" stroke="none"/><text fill="#000000" stroke="none" font-family="Arial" font-size="13px" font-style="normal" font-weight="normal" text-decoration="none" x="1317" y="444.5">+agit(entite: Entite, temps: double)</text></g></g><g transform="translate(-22,-102) scale(1,1)"><path fill="none" stroke="#000000" d="M 624 227 L 1432 224 L 1432 371 L 1425 391" stroke-miterlimit="10"/></g><g transform="translate(-22,-102) scale(1,1)"><path fill="#FFFFFF" stroke="none" d="M 1424.384055445303 380.0172584340002 L 1425 391 L 1432.3304324658766 382.798490391201 L 1432.2677093440184 370.2351161599476"/></g><g transform="translate(-22,-102) scale(1,1)"><path fill="none" stroke="#000000" d="M 1424.384055445303 380.0172584340002 L 1425 391 L 1432.3304324658766 382.798490391201 L 1432.2677093440184 370.2351161599476 L 1424.384055445303 380.0172584340002" stroke-miterlimit="10"/></g><g transform="translate(-22,-102) scale(1,1)"><path fill="none" stroke="#000000" d="M 634.1469755201312 222.75277881505332 L 624 227 L 634.1782340998935 231.17175629774363" stroke-miterlimit="10"/></g><g transform="translate(-22,-102) scale(1,1)"><g><path fill="none" stroke="none"/><text fill="#000000" stroke="none" font-family="Arial" font-size="13px" font-style="normal" font-weight="normal" text-decoration="none" x="1120.13134765625" y="243.5">-lesComportements</text></g></g><g transform="translate(-22,-102) scale(1,1)"><g><path fill="none" stroke="none"/><text fill="#000000" stroke="none" font-family="Arial" font-size="13px" font-style="normal" font-weight="normal" text-decoration="none" x="642.220458984375" y="245.5">*</text></g></g><g transform="translate(-22,-102) scale(1,1)"><path fill="none" stroke="#000000" d="M 1167 391 L 1160 344 L 520 344 L 519 263" stroke-miterlimit="10"/></g><g transform="translate(-22,-102) scale(1,1)"><path fill="#FFFFFF" stroke="none" d="M 527.6693051111075 283.21987015018954 L 519 263 L 510.83251713432884 283.4277317301498"/></g><g transform="translate(-22,-102) scale(1,1)"><path fill="none" stroke="#000000" d="M 527.6693051111075 283.21987015018954 L 519 263 L 510.83251713432884 283.4277317301498 L 527.6693051111075 283.21987015018954" stroke-miterlimit="10"/></g><g transform="translate(-22,-102) scale(1,1)"><path fill="none" stroke="#000000" d="M 1415 391 L 1416 344 L 520 344 L 519 263" stroke-miterlimit="10"/></g><g transform="translate(-22,-102) scale(1,1)"><path fill="#FFFFFF" stroke="none" d="M 527.6693051111075 283.21987015018954 L 519 263 L 510.83251713432884 283.4277317301498"/></g><g transform="translate(-22,-102) scale(1,1)"><path fill="none" stroke="#000000" d="M 527.6693051111075 283.21987015018954 L 519 263 L 510.83251713432884 283.4277317301498 L 527.6693051111075 283.21987015018954" stroke-miterlimit="10"/></g></g></svg>