<svg version="1.1" xmlns="http://www.w3.org/2000/svg" xmlns:xlink="http://www.w3.org/1999/xlink" width="501.57080078125" height="107"><defs/><g><text fill="#eeeeee" stroke="none" font-family="Arial" font-size="24px" font-style="normal" font-weight="normal" text-decoration="none" x="0" y="0">UNREGISTERED</text><text fill="#eeeeee" stroke="none" font-family="Arial" font-size="24px" font-style="normal" font-weight="normal" text-decoration="none" x="0" y="30">UNREGISTERED</text><text fill="#eeeeee" stroke="none" font-family="Arial" font-size="24px" font-style="normal" font-weight="normal" text-decoration="none" x="0" y="60">UNREGISTERED</text><text fill="#eeeeee" stroke="none" font-family="Arial" font-size="24px" font-style="normal" font-weight="normal" text-decoration="none" x="0" y="90">UNREGISTERED</text><text fill="#eeeeee" stroke="none" font-family="Arial" font-size="24px" font-style="normal" font-weight="normal" text-decoration="none" x="200" y="0">UNREGISTERED</text><text fill="#eeeeee" stroke="none" font-family="Arial" font-size="24px" font-style="normal" font-weight="normal" text-decoration="none" x="200" y="30">UNREGISTERED</text><text fill="#eeeeee" stroke="none" font-family="Arial" font-size="24px" font-style="normal" font-weight="normal" text-decoration="none" x="200" y="60">UNREGISTERED</text><text fill="#eeeeee" stroke="none" font-family="Arial" font-size="24px" font-style="normal" font-weight="normal" text-decoration="none" x="200" y="90">UNREGISTERED</text><text fill="#eeeeee" stroke="none" font-family="Arial" font-size="24px" font-style="normal" font-weight="normal" text-decoration="none" x="400" y="0">UNREGISTERED</text><text fill="#eeeeee" stroke="none" font-family="Arial" font-size="24px" font-style="normal" font-weight="normal" text-decoration="none" x="400" y="30">UNREGISTERED</text><text fill="#eeeeee" stroke="none" font-family="Arial" font-size="24px" font-style="normal" font-weight="normal" text-decoration="none" x="400" y="60">UNREGISTERED</text><text fill="#eeeeee" stroke="none" font-family="Arial" font-size="24px" font-style="normal" font-weight="normal" text-decoration="none" x="400" y="90">UNREGISTERED</text><g transform="translate(-262,-158) scale(1,1)"><rect fill="#C0C0C0" stroke="none" x="279" y="175" width="161.826171875" height="87" opacity="0.2"/></g><g transform="translate(-262,-158) scale(1,1)"><rect fill="#ffffff" stroke="none" x="272" y="168" width="161.826171875" height="87"/></g><g transform="translate(-262,-158) scale(1,1)"><path fill="none" stroke="#000000" d="M 272 168 L 433.826171875 168 L 433.826171875 255 L 272 255 L 272 168 Z Z" stroke-miterlimit="10"/></g><g transform="translate(-262,-158) scale(1,1)"><path fill="none" stroke="#000000" d="M 272 193 L 433.826171875 193" stroke-miterlimit="10"/></g><g transform="translate(-262,-158) scale(1,1)"><path fill="none" stroke="#000000" d="M 272 203 L 433.826171875 203" stroke-miterlimit="10"/></g><g transform="translate(-262,-158) scale(1,1)"><g><path fill="none" stroke="none"/><text fill="#000000" stroke="none" font-family="Arial" font-size="13px" font-style="normal" font-weight="bold" text-decoration="none" x="338.09765625" y="187.5">Sujet</text></g></g><g transform="translate(-262,-158) scale(1,1)"><g><path fill="none" stroke="none"/><text fill="#000000" stroke="none" font-family="Arial" font-size="13px" font-style="normal" font-weight="normal" text-decoration="none" x="277" y="220.5">+attacher(o: Observateur)</text></g></g><g transform="translate(-262,-158) scale(1,1)"><g><path fill="none" stroke="none"/><text fill="#000000" stroke="none" font-family="Arial" font-size="13px" font-style="normal" font-weight="normal" text-decoration="none" x="277" y="235.5">+detacher(o: Observateur)</text></g></g><g transform="translate(-262,-158) scale(1,1)"><g><path fill="none" stroke="none"/><text fill="#000000" stroke="none" font-family="Arial" font-size="13px" font-style="normal" font-weight="normal" text-decoration="none" x="277" y="250.5">+notifier()</text></g></g><g transform="translate(-262,-158) scale(1,1)"><rect fill="#C0C0C0" stroke="none" x="671" y="191" width="89.57080078125" height="60" opacity="0.2"/></g><g transform="translate(-262,-158) scale(1,1)"><rect fill="#ffffff" stroke="none" x="664" y="184" width="89.57080078125" height="60"/></g><g transform="translate(-262,-158) scale(1,1)"><path fill="none" stroke="#000000" d="M 664 184 L 753.57080078125 184 L 753.57080078125 244 L 664 244 L 664 184 Z Z" stroke-miterlimit="10"/></g><g transform="translate(-262,-158) scale(1,1)"><path fill="none" stroke="#000000" d="M 664 222 L 753.57080078125 222" stroke-miterlimit="10"/></g><g transform="translate(-262,-158) scale(1,1)"><g><path fill="none" stroke="none"/><text fill="#000000" stroke="none" font-family="Arial" font-size="13px" font-style="normal" font-weight="normal" text-decoration="none" x="676.625" y="201.5">«interface»</text></g></g><g transform="translate(-262,-158) scale(1,1)"><g><path fill="none" stroke="none"/><text fill="#000000" stroke="none" font-family="Arial" font-size="13px" font-style="italic" font-weight="bold" text-decoration="none" x="673.01953125" y="216.5">Observateur</text></g></g><g transform="translate(-262,-158) scale(1,1)"><g><path fill="none" stroke="none"/><text fill="#000000" stroke="none" font-family="Arial" font-size="13px" font-style="italic" font-weight="normal" text-decoration="none" x="669" y="239.5">+miseAJour()</text></g></g><g transform="translate(-262,-158) scale(1,1)"><path fill="none" stroke="#000000" d="M 663 214 L 435 212" stroke-miterlimit="10"/></g><g transform="translate(-262,-158) scale(1,1)"><path fill="#FFFFFF" stroke="none" d="M 445.1992080615523 207.8797870301202 L 435 212 L 445.1253597139909 216.2984986521214 L 456.99915363456216 212.19297503188213"/></g><g transform="translate(-262,-158) scale(1,1)"><path fill="none" stroke="#000000" d="M 445.1992080615523 207.8797870301202 L 435 212 L 445.1253597139909 216.2984986521214 L 456.99915363456216 212.19297503188213 L 445.1992080615523 207.8797870301202" stroke-miterlimit="10"/></g><g transform="translate(-262,-158) scale(1,1)"><path fill="none" stroke="#000000" d="M 652.8007919384477 218.1202129698798 L 663 214 L 652.874640286009 209.7015013478786" stroke-miterlimit="10"/></g><g transform="translate(-262,-158) scale(1,1)"><g><path fill="none" stroke="none"/><text fill="#000000" stroke="none" font-family="Arial" font-size="13px" font-style="normal" font-weight="normal" text-decoration="none" x="638.220458984375" y="207.5">*</text></g></g><g transform="translate(-262,-158) scale(1,1)"><g><path fill="none" stroke="none"/><text fill="#000000" stroke="none" font-family="Arial" font-size="13px" font-style="normal" font-weight="normal" text-decoration="none" x="445.13134765625" y="234.5">-lesObservateurs</text></g></g></g></svg>