<svg version="1.1" xmlns="http://www.w3.org/2000/svg" xmlns:xlink="http://www.w3.org/1999/xlink" width="756" height="604"><defs/><g><text fill="#eeeeee" stroke="none" font-family="Arial" font-size="24px" font-style="normal" font-weight="normal" text-decoration="none" x="0" y="0">UNREGISTERED</text><text fill="#eeeeee" stroke="none" font-family="Arial" font-size="24px" font-style="normal" font-weight="normal" text-decoration="none" x="0" y="30">UNREGISTERED</text><text fill="#eeeeee" stroke="none" font-family="Arial" font-size="24px" font-style="normal" font-weight="normal" text-decoration="none" x="0" y="60">UNREGISTERED</text><text fill="#eeeeee" stroke="none" font-family="Arial" font-size="24px" font-style="normal" font-weight="normal" text-decoration="none" x="0" y="90">UNREGISTERED</text><text fill="#eeeeee" stroke="none" font-family="Arial" font-size="24px" font-style="normal" font-weight="normal" text-decoration="none" x="0" y="120">UNREGISTERED</text><text fill="#eeeeee" stroke="none" font-family="Arial" font-size="24px" font-style="normal" font-weight="normal" text-decoration="none" x="0" y="150">UNREGISTERED</text><text fill="#eeeeee" stroke="none" font-family="Arial" font-size="24px" font-style="normal" font-weight="normal" text-decoration="none" x="0" y="180">UNREGISTERED</text><text fill="#eeeeee" stroke="none" font-family="Arial" font-size="24px" font-style="normal" font-weight="normal" text-decoration="none" x="0" y="210">UNREGISTERED</text><text fill="#eeeeee" stroke="none" font-family="Arial" font-size="24px" font-style="normal" font-weight="normal" text-decoration="none" x="0" y="240">UNREGISTERED</text><text fill="#eeeeee" stroke="none" font-family="Arial" font-size="24px" font-style="normal" font-weight="normal" text-decoration="none" x="0" y="270">UNREGISTERED</text><text fill="#eeeeee" stroke="none" font-family="Arial" font-size="24px" font-style="normal" font-weight="normal" text-decoration="none" x="0" y="300">UNREGISTERED</text><text fill="#eeeeee" stroke="none" font-family="Arial" font-size="24px" font-style="normal" font-weight="normal" text-decoration="none" x="0" y="330">UNREGISTERED</text><text fill="#eeeeee" stroke="none" font-family="Arial" font-size="24px" font-style="normal" font-weight="normal" text-decoration="none" x="0" y="360">UNREGISTERED</text><text fill="#eeeeee" stroke="none" font-family="Arial" font-size="24px" font-style="normal" font-weight="normal" text-decoration="none" x="0" y="390">UNREGISTERED</text><text fill="#eeeeee" stroke="none" font-family="Arial" font-size="24px" font-style="normal" font-weight="normal" text-decoration="none" x="0" y="420">UNREGISTERED</text><text fill="#eeeeee" stroke="none" font-family="Arial" font-size="24px" font-style="normal" font-weight="normal" text-decoration="none" x="0" y="450">UNREGISTERED</text><text fill="#eeeeee" stroke="none" font-family="Arial" font-size="24px" font-style="normal" font-weight="normal" text-decoration="none" x="0" y="480">UNREGISTERED</text><text fill="#eeeeee" stroke="none" font-family="Arial" font-size="24px" font-style="normal" font-weight="normal" text-decoration="none" x="0" y="510">UNREGISTERED</text><text fill="#eeeeee" stroke="none" font-family="Arial" font-size="24px" font-style="normal" font-weight="normal" text-decoration="none" x="0" y="540">UNREGISTERED</text><text fill="#eeeeee" stroke="none" font-family="Arial" font-size="24px" font-style="normal" font-weight="normal" text-decoration="none" x="0" y="570">UNREGISTERED</text><text fill="#eeeeee" stroke="none" font-family="Arial" font-size="24px" font-style="normal" font-weight="normal" text-decoration="none" x="0" y="600">UNREGISTERED</text><text fill="#eeeeee" stroke="none" font-family="Arial" font-size="24px" font-style="normal" font-weight="normal" text-decoration="none" x="200" y="0">UNREGISTERED</text><text fill="#eeeeee" stroke="none" font-family="Arial" font-size="24px" font-style="normal" font-weight="normal" text-decoration="none" x="200" y="30">UNREGISTERED</text><text fill="#eeeeee" stroke="none" font-family="Arial" font-size="24px" font-style="normal" font-weight="normal" text-decoration="none" x="200" y="60">UNREGISTERED</text><text fill="#eeeeee" stroke="none" font-family="Arial" font-size="24px" font-style="normal" font-weight="normal" text-decoration="none" x="200" y="90">UNREGISTERED</text><text fill="#eeeeee" stroke="none" font-family="Arial" font-size="24px" font-style="normal" font-weight="normal" text-decoration="none" x="200" y="120">UNREGISTERED</text><text fill="#eeeeee" stroke="none" font-family="Arial" font-size="24px" font-style="normal" font-weight="normal" text-decoration="none" x="200" y="150">UNREGISTERED</text><text fill="#eeeeee" stroke="none" font-family="Arial" font-size="24px" font-style="normal" font-weight="normal" text-decoration="none" x="200" y="180">UNREGISTERED</text><text fill="#eeeeee" stroke="none" font-family="Arial" font-size="24px" font-style="normal" font-weight="normal" text-decoration="none" x="200" y="210">UNREGISTERED</text><text fill="#eeeeee" stroke="none" font-family="Arial" font-size="24px" font-style="normal" font-weight="normal" text-decoration="none" x="200" y="240">UNREGISTERED</text><text fill="#eeeeee" stroke="none" font-family="Arial" font-size="24px" font-style="normal" font-weight="normal" text-decoration="none" x="200" y="270">UNREGISTERED</text><text fill="#eeeeee" stroke="none" font-family="Arial" font-size="24px" font-style="normal" font-weight="normal" text-decoration="none" x="200" y="300">UNREGISTERED</text><text fill="#eeeeee" stroke="none" font-family="Arial" font-size="24px" font-style="normal" font-weight="normal" text-decoration="none" x="200" y="330">UNREGISTERED</text><text fill="#eeeeee" stroke="none" font-family="Arial" font-size="24px" font-style="normal" font-weight="normal" text-decoration="none" x="200" y="360">UNREGISTERED</text><text fill="#eeeeee" stroke="none" font-family="Arial" font-size="24px" font-style="normal" font-weight="normal" text-decoration="none" x="200" y="390">UNREGISTERED</text><text fill="#eeeeee" stroke="none" font-family="Arial" font-size="24px" font-style="normal" font-weight="normal" text-decoration="none" x="200" y="420">UNREGISTERED</text><text fill="#eeeeee" stroke="none" font-family="Arial" font-size="24px" font-style="normal" font-weight="normal" text-decoration="none" x="200" y="450">UNREGISTERED</text><text fill="#eeeeee" stroke="none" font-family="Arial" font-size="24px" font-style="normal" font-weight="normal" text-decoration="none" x="200" y="480">UNREGISTERED</text><text fill="#eeeeee" stroke="none" font-family="Arial" font-size="24px" font-style="normal" font-weight="normal" text-decoration="none" x="200" y="510">UNREGISTERED</text><text fill="#eeeeee" stroke="none" font-family="Arial" font-size="24px" font-style="normal" font-weight="normal" text-decoration="none" x="200" y="540">UNREGISTERED</text><text fill="#eeeeee" stroke="none" font-family="Arial" font-size="24px" font-style="normal" font-weight="normal" text-decoration="none" x="200" y="570">UNREGISTERED</text><text fill="#eeeeee" stroke="none" font-family="Arial" font-size="24px" font-style="normal" font-weight="normal" text-decoration="none" x="200" y="600">UNREGISTERED</text><text fill="#eeeeee" stroke="none" font-family="Arial" font-size="24px" font-style="normal" font-weight="normal" text-decoration="none" x="400" y="0">UNREGISTERED</text><text fill="#eeeeee" stroke="none" font-family="Arial" font-size="24px" font-style="normal" font-weight="normal" text-decoration="none" x="400" y="30">UNREGISTERED</text><text fill="#eeeeee" stroke="none" font-family="Arial" font-size="24px" font-style="normal" font-weight="normal" text-decoration="none" x="400" y="60">UNREGISTERED</text><text fill="#eeeeee" stroke="none" font-family="Arial" font-size="24px" font-style="normal" font-weight="normal" text-decoration="none" x="400" y="90">UNREGISTERED</text><text fill="#eeeeee" stroke="none" font-family="Arial" font-size="24px" font-style="normal" font-weight="normal" text-decoration="none" x="400" y="120">UNREGISTERED</text><text fill="#eeeeee" stroke="none" font-family="Arial" font-size="24px" font-style="normal" font-weight="normal" text-decoration="none" x="400" y="150">UNREGISTERED</text><text fill="#eeeeee" stroke="none" font-family="Arial" font-size="24px" font-style="normal" font-weight="normal" text-decoration="none" x="400" y="180">UNREGISTERED</text><text fill="#eeeeee" stroke="none" font-family="Arial" font-size="24px" font-style="normal" font-weight="normal" text-decoration="none" x="400" y="210">UNREGISTERED</text><text fill="#eeeeee" stroke="none" font-family="Arial" font-size="24px" font-style="normal" font-weight="normal" text-decoration="none" x="400" y="240">UNREGISTERED</text><text fill="#eeeeee" stroke="none" font-family="Arial" font-size="24px" font-style="normal" font-weight="normal" text-decoration="none" x="400" y="270">UNREGISTERED</text><text fill="#eeeeee" stroke="none" font-family="Arial" font-size="24px" font-style="normal" font-weight="normal" text-decoration="none" x="400" y="300">UNREGISTERED</text><text fill="#eeeeee" stroke="none" font-family="Arial" font-size="24px" font-style="normal" font-weight="normal" text-decoration="none" x="400" y="330">UNREGISTERED</text><text fill="#eeeeee" stroke="none" font-family="Arial" font-size="24px" font-style="normal" font-weight="normal" text-decoration="none" x="400" y="360">UNREGISTERED</text><text fill="#eeeeee" stroke="none" font-family="Arial" font-size="24px" font-style="normal" font-weight="normal" text-decoration="none" x="400" y="390">UNREGISTERED</text><text fill="#eeeeee" stroke="none" font-family="Arial" font-size="24px" font-style="normal" font-weight="normal" text-decoration="none" x="400" y="420">UNREGISTERED</text><text fill="#eeeeee" stroke="none" font-family="Arial" font-size="24px" font-style="normal" font-weight="normal" text-decoration="none" x="400" y="450">UNREGISTERED</text><text fill="#eeeeee" stroke="none" font-family="Arial" font-size="24px" font-style="normal" font-weight="normal" text-decoration="none" x="400" y="480">UNREGISTERED</text><text fill="#eeeeee" stroke="none" font-family="Arial" font-size="24px" font-style="normal" font-weight="normal" text-decoration="none" x="400" y="510">UNREGISTERED</text><text fill="#eeeeee" stroke="none" font-family="Arial" font-size="24px" font-style="normal" font-weight="normal" text-decoration="none" x="400" y="540">UNREGISTERED</text><text fill="#eeeeee" stroke="none" font-family="Arial" font-size="24px" font-style="normal" font-weight="normal" text-decoration="none" x="400" y="570">UNREGISTERED</text><text fill="#eeeeee" stroke="none" font-family="Arial" font-size="24px" font-style="normal" font-weight="normal" text-decoration="none" x="400" y="600">UNREGISTERED</text><text fill="#eeeeee" stroke="none" font-family="Arial" font-size="24px" font-style="normal" font-weight="normal" text-decoration="none" x="600" y="0">UNREGISTERED</text><text fill="#eeeeee" stroke="none" font-family="Arial" font-size="24px" font-style="normal" font-weight="normal" text-decoration="none" x="600" y="30">UNREGISTERED</text><text fill="#eeeeee" stroke="none" font-family="Arial" font-size="24px" font-style="normal" font-weight="normal" text-decoration="none" x="600" y="60">UNREGISTERED</text><text fill="#eeeeee" stroke="none" font-family="Arial" font-size="24px" font-style="normal" font-weight="normal" text-decoration="none" x="600" y="90">UNREGISTERED</text><text fill="#eeeeee" stroke="none" font-family="Arial" font-size="24px" font-style="normal" font-weight="normal" text-decoration="none" x="600" y="120">UNREGISTERED</text><text fill="#eeeeee" stroke="none" font-family="Arial" font-size="24px" font-style="normal" font-weight="normal" text-decoration="none" x="600" y="150">UNREGISTERED</text><text fill="#eeeeee" stroke="none" font-family="Arial" font-size="24px" font-style="normal" font-weight="normal" text-decoration="none" x="600" y="180">UNREGISTERED</text><text fill="#eeeeee" stroke="none" font-family="Arial" font-size="24px" font-style="normal" font-weight="normal" text-decoration="none" x="600" y="210">UNREGISTERED</text><text fill="#eeeeee" stroke="none" font-family="Arial" font-size="24px" font-style="normal" font-weight="normal" text-decoration="none" x="600" y="240">UNREGISTERED</text><text fill="#eeeeee" stroke="none" font-family="Arial" font-size="24px" font-style="normal" font-weight="normal" text-decoration="none" x="600" y="270">UNREGISTERED</text><text fill="#eeeeee" stroke="none" font-family="Arial" font-size="24px" font-style="normal" font-weight="normal" text-decoration="none" x="600" y="300">UNREGISTERED</text><text fill="#eeeeee" stroke="none" font-family="Arial" font-size="24px" font-style="normal" font-weight="normal" text-decoration="none" x="600" y="330">UNREGISTERED</text><text fill="#eeeeee" stroke="none" font-family="Arial" font-size="24px" font-style="normal" font-weight="normal" text-decoration="none" x="600" y="360">UNREGISTERED</text><text fill="#eeeeee" stroke="none" font-family="Arial" font-size="24px" font-style="normal" font-weight="normal" text-decoration="none" x="600" y="390">UNREGISTERED</text><text fill="#eeeeee" stroke="none" font-family="Arial" font-size="24px" font-style="normal" font-weight="normal" text-decoration="none" x="600" y="420">UNREGISTERED</text><text fill="#eeeeee" stroke="none" font-family="Arial" font-size="24px" font-style="normal" font-weight="normal" text-decoration="none" x="600" y="450">UNREGISTERED</text><text fill="#eeeeee" stroke="none" font-family="Arial" font-size="24px" font-style="normal" font-weight="normal" text-decoration="none" x="600" y="480">UNREGISTERED</text><text fill="#eeeeee" stroke="none" font-family="Arial" font-size="24px" font-style="normal" font-weight="normal" text-decoration="none" x="600" y="510">UNREGISTERED</text><text fill="#eeeeee" stroke="none" font-family="Arial" font-size="24px" font-style="normal" font-weight="normal" text-decoration="none" x="600" y="540">UNREGISTERED</text><text fill="#eeeeee" stroke="none" font-family="Arial" font-size="24px" font-style="normal" font-weight="normal" text-decoration="none" x="600" y="570">UNREGISTERED</text><text fill="#eeeeee" stroke="none" font-family="Arial" font-size="24px" font-style="normal" font-weight="normal" text-decoration="none" x="600" y="600">UNREGISTERED</text><g transform="translate(-126,-46) scale(1,1)"><rect fill="#C0C0C0" stroke="none" x="143" y="63" width="294.4" height="15" opacity="0.2"/></g><g transform="translate(-126,-46) scale(1,1)"><rect fill="#C0C0C0" stroke="none" x="143" y="77" width="736" height="570" opacity="0.2"/></g><g transform="translate(-126,-46) scale(1,1)"><rect fill="#ffffff" stroke="none" x="136" y="71" width="736" height="569"/></g><g transform="translate(-126,-46) scale(1,1)"><path fill="none" stroke="#000000" d="M 136 71 L 872 71 L 872 640 L 136 640 L 136 71 Z Z" stroke-miterlimit="10"/></g><g transform="translate(-126,-46) scale(1,1)"><rect fill="#ffffff" stroke="none" x="136" y="56" width="294.4" height="15"/></g><g transform="translate(-126,-46) scale(1,1)"><path fill="none" stroke="#000000" d="M 136 56 L 430.4 56 L 430.4 71 L 136 71 L 136 56 Z Z" stroke-miterlimit="10"/></g><g transform="translate(-126,-46) scale(1,1)"><rect fill="#ffffff" stroke="none" x="136" y="70" width="736" height="570"/></g><g transform="translate(-126,-46) scale(1,1)"><path fill="none" stroke="#000000" d="M 136 70 L 872 70 L 872 640 L 136 640 L 136 70 Z Z" stroke-miterlimit="10"/></g><g transform="translate(-126,-46) scale(1,1)"><g><path fill="none" stroke="none"/><text fill="#000000" stroke="none" font-family="Arial" font-size="13px" font-style="normal" font-weight="bold" text-decoration="none" x="483.036865234375" y="90.5">logique</text></g></g><g transform="translate(-126,-46) scale(1,1)"><path fill="none" stroke="#000000" d="M 599 303 L 518 209" stroke-miterlimit="10"/></g><g transform="translate(-126,-46) scale(1,1)"><path fill="none" stroke="#000000" d="M 527.8229019222356 213.95081789466553 L 518 209 L 521.4450836544055 219.44659746588087" stroke-miterlimit="10"/></g><g transform="translate(-126,-46) scale(1,1)"><g><path fill="none" stroke="none"/><text fill="#000000" stroke="none" font-family="Arial" font-size="13px" font-style="normal" font-weight="normal" text-decoration="none" x="521.13134765625" y="271.5">-position</text></g></g><g transform="translate(-126,-46) scale(1,1)"><g><path fill="none" stroke="none"/><text fill="#000000" stroke="none" font-family="Arial" font-size="13px" font-style="normal" font-weight="normal" text-decoration="none" x="537.5" y="223.5">1</text></g></g><g transform="translate(-126,-46) scale(1,1)"><path fill="none" stroke="#000000" d="M 646 303 L 736 225" stroke-miterlimit="10"/></g><g transform="translate(-126,-46) scale(1,1)"><path fill="none" stroke="#000000" d="M 731.0771192885779 234.83693272830044 L 736 225 L 725.5632358277238 228.47475950423808" stroke-miterlimit="10"/></g><g transform="translate(-126,-46) scale(1,1)"><g><path fill="none" stroke="none"/><text fill="#000000" stroke="none" font-family="Arial" font-size="13px" font-style="normal" font-weight="normal" text-decoration="none" x="649.13134765625" y="258.5">-dimension</text></g></g><g transform="translate(-126,-46) scale(1,1)"><g><path fill="none" stroke="none"/><text fill="#000000" stroke="none" font-family="Arial" font-size="13px" font-style="normal" font-weight="normal" text-decoration="none" x="723.5" y="254.5">1</text></g></g><g transform="translate(-126,-46) scale(1,1)"><rect fill="#C0C0C0" stroke="none" x="591" y="311" width="71.130859375" height="44" opacity="0.2"/></g><g transform="translate(-126,-46) scale(1,1)"><rect fill="#ffffff" stroke="none" x="584" y="304" width="71.130859375" height="44"/></g><g transform="translate(-126,-46) scale(1,1)"><path fill="none" stroke="#000000" d="M 584 304 L 655.130859375 304 L 655.130859375 348 L 584 348 L 584 304 Z Z" stroke-miterlimit="10"/></g><g transform="translate(-126,-46) scale(1,1)"><path fill="none" stroke="#000000" d="M 584 329 L 655.130859375 329" stroke-miterlimit="10"/></g><g transform="translate(-126,-46) scale(1,1)"><path fill="none" stroke="#000000" d="M 584 339 L 655.130859375 339" stroke-miterlimit="10"/></g><g transform="translate(-126,-46) scale(1,1)"><g><path fill="none" stroke="none"/><text fill="#000000" stroke="none" font-family="Arial" font-size="13px" font-style="normal" font-weight="bold" text-decoration="none" x="590.29638671875" y="323.5">Rectangle</text></g></g><g transform="translate(-126,-46) scale(1,1)"><rect fill="#C0C0C0" stroke="none" x="735" y="159" width="103.681640625" height="72" opacity="0.2"/></g><g transform="translate(-126,-46) scale(1,1)"><rect fill="#ffffff" stroke="none" x="728" y="152" width="103.681640625" height="72"/></g><g transform="translate(-126,-46) scale(1,1)"><path fill="none" stroke="#000000" d="M 728 152 L 831.681640625 152 L 831.681640625 224 L 728 224 L 728 152 Z Z" stroke-miterlimit="10"/></g><g transform="translate(-126,-46) scale(1,1)"><path fill="none" stroke="#000000" d="M 728 177 L 831.681640625 177" stroke-miterlimit="10"/></g><g transform="translate(-126,-46) scale(1,1)"><path fill="none" stroke="#000000" d="M 728 215 L 831.681640625 215" stroke-miterlimit="10"/></g><g transform="translate(-126,-46) scale(1,1)"><g><path fill="none" stroke="none"/><text fill="#000000" stroke="none" font-family="Arial" font-size="13px" font-style="normal" font-weight="bold" text-decoration="none" x="749.134033203125" y="171.5">Dimension</text></g></g><g transform="translate(-126,-46) scale(1,1)"><g><path fill="none" stroke="none"/><text fill="#000000" stroke="none" font-family="Arial" font-size="13px" font-style="normal" font-weight="normal" text-decoration="none" x="733" y="194.5">-largeur: double</text></g></g><g transform="translate(-126,-46) scale(1,1)"><g><path fill="none" stroke="none"/><text fill="#000000" stroke="none" font-family="Arial" font-size="13px" font-style="normal" font-weight="normal" text-decoration="none" x="733" y="209.5">-hauteur: double</text></g></g><g transform="translate(-126,-46) scale(1,1)"><rect fill="#C0C0C0" stroke="none" x="455" y="143" width="76.89453125" height="72" opacity="0.2"/></g><g transform="translate(-126,-46) scale(1,1)"><rect fill="#ffffff" stroke="none" x="448" y="136" width="76.89453125" height="72"/></g><g transform="translate(-126,-46) scale(1,1)"><path fill="none" stroke="#000000" d="M 448 136 L 524.89453125 136 L 524.89453125 208 L 448 208 L 448 136 Z Z" stroke-miterlimit="10"/></g><g transform="translate(-126,-46) scale(1,1)"><path fill="none" stroke="#000000" d="M 448 161 L 524.89453125 161" stroke-miterlimit="10"/></g><g transform="translate(-126,-46) scale(1,1)"><path fill="none" stroke="#000000" d="M 448 199 L 524.89453125 199" stroke-miterlimit="10"/></g><g transform="translate(-126,-46) scale(1,1)"><g><path fill="none" stroke="none"/><text fill="#000000" stroke="none" font-family="Arial" font-size="13px" font-style="normal" font-weight="bold" text-decoration="none" x="455.013671875" y="155.5">Position2D</text></g></g><g transform="translate(-126,-46) scale(1,1)"><g><path fill="none" stroke="none"/><text fill="#000000" stroke="none" font-family="Arial" font-size="13px" font-style="normal" font-weight="normal" text-decoration="none" x="453" y="178.5">-x: double</text></g></g><g transform="translate(-126,-46) scale(1,1)"><g><path fill="none" stroke="none"/><text fill="#000000" stroke="none" font-family="Arial" font-size="13px" font-style="normal" font-weight="normal" text-decoration="none" x="453" y="193.5">-y: double</text></g></g><g transform="translate(-126,-46) scale(1,1)"><rect fill="#C0C0C0" stroke="none" x="207" y="159" width="125.34619140625" height="105" opacity="0.2"/></g><g transform="translate(-126,-46) scale(1,1)"><rect fill="#ffffff" stroke="none" x="200" y="152" width="125.34619140625" height="105"/></g><g transform="translate(-126,-46) scale(1,1)"><path fill="none" stroke="#000000" d="M 200 152 L 325.34619140625 152 L 325.34619140625 257 L 200 257 L 200 152 Z Z" stroke-miterlimit="10"/></g><g transform="translate(-126,-46) scale(1,1)"><path fill="none" stroke="#000000" d="M 200 190 L 325.34619140625 190" stroke-miterlimit="10"/></g><g transform="translate(-126,-46) scale(1,1)"><g><path fill="none" stroke="none"/><text fill="#000000" stroke="none" font-family="Arial" font-size="13px" font-style="normal" font-weight="normal" text-decoration="none" x="219.30908203125" y="169.5">«enumeration»</text></g></g><g transform="translate(-126,-46) scale(1,1)"><g><path fill="none" stroke="none"/><text fill="#000000" stroke="none" font-family="Arial" font-size="13px" font-style="normal" font-weight="bold" text-decoration="none" x="237.025390625" y="184.5">Direction</text></g></g><g transform="translate(-126,-46) scale(1,1)"><g><path fill="none" stroke="none"/><text fill="#000000" stroke="none" font-family="Arial" font-size="13px" font-style="normal" font-weight="normal" text-decoration="none" x="205" y="207.5">DROITE</text></g></g><g transform="translate(-126,-46) scale(1,1)"><g><path fill="none" stroke="none"/><text fill="#000000" stroke="none" font-family="Arial" font-size="13px" font-style="normal" font-weight="normal" text-decoration="none" x="205" y="222.5">GAUCHE</text></g></g><g transform="translate(-126,-46) scale(1,1)"><g><path fill="none" stroke="none"/><text fill="#000000" stroke="none" font-family="Arial" font-size="13px" font-style="normal" font-weight="normal" text-decoration="none" x="205" y="237.5">HAUT</text></g></g><g transform="translate(-126,-46) scale(1,1)"><g><path fill="none" stroke="none"/><text fill="#000000" stroke="none" font-family="Arial" font-size="13px" font-style="normal" font-weight="normal" text-decoration="none" x="205" y="252.5">BAS</text></g></g><g transform="translate(-126,-46) scale(1,1)"><rect fill="#C0C0C0" stroke="none" x="191" y="351" width="263.4521484375" height="88" opacity="0.2"/></g><g transform="translate(-126,-46) scale(1,1)"><rect fill="#ffffff" stroke="none" x="184" y="344" width="263.4521484375" height="88"/></g><g transform="translate(-126,-46) scale(1,1)"><path fill="none" stroke="#000000" d="M 184 344 L 447.4521484375 344 L 447.4521484375 432 L 184 432 L 184 344 Z Z" stroke-miterlimit="10"/></g><g transform="translate(-126,-46) scale(1,1)"><path fill="none" stroke="#000000" d="M 184 369 L 447.4521484375 369" stroke-miterlimit="10"/></g><g transform="translate(-126,-46) scale(1,1)"><path fill="none" stroke="#000000" d="M 184 422 L 447.4521484375 422" stroke-miterlimit="10"/></g><g transform="translate(-126,-46) scale(1,1)"><g><path fill="none" stroke="none"/><text fill="#000000" stroke="none" font-family="Arial" font-size="13px" font-style="normal" font-weight="bold" text-decoration="none" x="293.31884765625" y="363.5">Attaque</text></g></g><g transform="translate(-126,-46) scale(1,1)"><g><path fill="none" stroke="none"/><text fill="#000000" stroke="none" font-family="Arial" font-size="13px" font-style="normal" font-weight="normal" text-decoration="none" x="189" y="386.5">-DUREE_PAR_DEFAUT {frozen}: float = 0.5</text><path fill="none" stroke="#000000" d="M 189 386.5 L 443.4521484375 386.5" stroke-miterlimit="10"/></g></g><g transform="translate(-126,-46) scale(1,1)"><g><path fill="none" stroke="none"/><text fill="#000000" stroke="none" font-family="Arial" font-size="13px" font-style="normal" font-weight="normal" text-decoration="none" x="189" y="401.5">-duree: float</text></g></g><g transform="translate(-126,-46) scale(1,1)"><g><path fill="none" stroke="none"/><text fill="#000000" stroke="none" font-family="Arial" font-size="13px" font-style="normal" font-weight="normal" text-decoration="none" x="189" y="416.5">-degats: int</text></g></g><g transform="translate(-126,-46) scale(1,1)"><rect fill="#C0C0C0" stroke="none" x="471" y="495" width="313.1416015625" height="115" opacity="0.2"/></g><g transform="translate(-126,-46) scale(1,1)"><rect fill="#ffffff" stroke="none" x="464" y="488" width="313.1416015625" height="115"/></g><g transform="translate(-126,-46) scale(1,1)"><path fill="none" stroke="#000000" d="M 464 488 L 777.1416015625 488 L 777.1416015625 603 L 464 603 L 464 488 Z Z" stroke-miterlimit="10"/></g><g transform="translate(-126,-46) scale(1,1)"><path fill="none" stroke="#000000" d="M 464 513 L 777.1416015625 513" stroke-miterlimit="10"/></g><g transform="translate(-126,-46) scale(1,1)"><path fill="none" stroke="#000000" d="M 464 566 L 777.1416015625 566" stroke-miterlimit="10"/></g><g transform="translate(-126,-46) scale(1,1)"><g><path fill="none" stroke="none"/><text fill="#000000" stroke="none" font-family="Arial" font-size="13px" font-style="normal" font-weight="bold" text-decoration="none" x="603.5908203125" y="507.5">Score</text></g></g><g transform="translate(-126,-46) scale(1,1)"><g><path fill="none" stroke="none"/><text fill="#000000" stroke="none" font-family="Arial" font-size="13px" font-style="normal" font-weight="normal" text-decoration="none" x="469" y="530.5">-PSEUDO_PAR_DEFAUT {frozen}: String = "Joueur"</text><path fill="none" stroke="#000000" d="M 469 530.5 L 773.1416015625 530.5" stroke-miterlimit="10"/></g></g><g transform="translate(-126,-46) scale(1,1)"><g><path fill="none" stroke="none"/><text fill="#000000" stroke="none" font-family="Arial" font-size="13px" font-style="normal" font-weight="normal" text-decoration="none" x="469" y="545.5">-pseudo: String</text></g></g><g transform="translate(-126,-46) scale(1,1)"><g><path fill="none" stroke="none"/><text fill="#000000" stroke="none" font-family="Arial" font-size="13px" font-style="normal" font-weight="normal" text-decoration="none" x="469" y="560.5">-score: int</text></g></g><g transform="translate(-126,-46) scale(1,1)"><g><path fill="none" stroke="none"/><text fill="#000000" stroke="none" font-family="Arial" font-size="13px" font-style="normal" font-weight="normal" text-decoration="none" x="469" y="583.5">+changerScore(valeur: int)</text></g></g><g transform="translate(-126,-46) scale(1,1)"><g><path fill="none" stroke="none"/><text fill="#000000" stroke="none" font-family="Arial" font-size="13px" font-style="normal" font-weight="normal" text-decoration="none" x="469" y="598.5">+diminuerScore(valeur: int)</text></g></g><g transform="translate(-126,-46) scale(1,1)"><path fill="none" stroke="#000000" d="M 448 361 L 583 333" stroke-miterlimit="10"/></g><g transform="translate(-126,-46) scale(1,1)"><path fill="none" stroke="#000000" d="M 573.9039955224123 339.18568529297323 L 583 333 L 572.1942135352473 330.94209356914183" stroke-miterlimit="10"/></g><g transform="translate(-126,-46) scale(1,1)"><g><path fill="none" stroke="none"/><text fill="#000000" stroke="none" font-family="Arial" font-size="13px" font-style="normal" font-weight="normal" text-decoration="none" x="486.13134765625" y="338.5">-collision</text></g></g><g transform="translate(-126,-46) scale(1,1)"><g><path fill="none" stroke="none"/><text fill="#000000" stroke="none" font-family="Arial" font-size="13px" font-style="normal" font-weight="normal" text-decoration="none" x="560.5" y="355.5">1</text></g></g></g></svg>