<svg version="1.1" xmlns="http://www.w3.org/2000/svg" xmlns:xlink="http://www.w3.org/1999/xlink" width="860" height="508"><defs/><g><text fill="#eeeeee" stroke="none" font-family="Arial" font-size="24px" font-style="normal" font-weight="normal" text-decoration="none" x="0" y="0">UNREGISTERED</text><text fill="#eeeeee" stroke="none" font-family="Arial" font-size="24px" font-style="normal" font-weight="normal" text-decoration="none" x="0" y="30">UNREGISTERED</text><text fill="#eeeeee" stroke="none" font-family="Arial" font-size="24px" font-style="normal" font-weight="normal" text-decoration="none" x="0" y="60">UNREGISTERED</text><text fill="#eeeeee" stroke="none" font-family="Arial" font-size="24px" font-style="normal" font-weight="normal" text-decoration="none" x="0" y="90">UNREGISTERED</text><text fill="#eeeeee" stroke="none" font-family="Arial" font-size="24px" font-style="normal" font-weight="normal" text-decoration="none" x="0" y="120">UNREGISTERED</text><text fill="#eeeeee" stroke="none" font-family="Arial" font-size="24px" font-style="normal" font-weight="normal" text-decoration="none" x="0" y="150">UNREGISTERED</text><text fill="#eeeeee" stroke="none" font-family="Arial" font-size="24px" font-style="normal" font-weight="normal" text-decoration="none" x="0" y="180">UNREGISTERED</text><text fill="#eeeeee" stroke="none" font-family="Arial" font-size="24px" font-style="normal" font-weight="normal" text-decoration="none" x="0" y="210">UNREGISTERED</text><text fill="#eeeeee" stroke="none" font-family="Arial" font-size="24px" font-style="normal" font-weight="normal" text-decoration="none" x="0" y="240">UNREGISTERED</text><text fill="#eeeeee" stroke="none" font-family="Arial" font-size="24px" font-style="normal" font-weight="normal" text-decoration="none" x="0" y="270">UNREGISTERED</text><text fill="#eeeeee" stroke="none" font-family="Arial" font-size="24px" font-style="normal" font-weight="normal" text-decoration="none" x="0" y="300">UNREGISTERED</text><text fill="#eeeeee" stroke="none" font-family="Arial" font-size="24px" font-style="normal" font-weight="normal" text-decoration="none" x="0" y="330">UNREGISTERED</text><text fill="#eeeeee" stroke="none" font-family="Arial" font-size="24px" font-style="normal" font-weight="normal" text-decoration="none" x="0" y="360">UNREGISTERED</text><text fill="#eeeeee" stroke="none" font-family="Arial" font-size="24px" font-style="normal" font-weight="normal" text-decoration="none" x="0" y="390">UNREGISTERED</text><text fill="#eeeeee" stroke="none" font-family="Arial" font-size="24px" font-style="normal" font-weight="normal" text-decoration="none" x="0" y="420">UNREGISTERED</text><text fill="#eeeeee" stroke="none" font-family="Arial" font-size="24px" font-style="normal" font-weight="normal" text-decoration="none" x="0" y="450">UNREGISTERED</text><text fill="#eeeeee" stroke="none" font-family="Arial" font-size="24px" font-style="normal" font-weight="normal" text-decoration="none" x="0" y="480">UNREGISTERED</text><text fill="#eeeeee" stroke="none" font-family="Arial" font-size="24px" font-style="normal" font-weight="normal" text-decoration="none" x="200" y="0">UNREGISTERED</text><text fill="#eeeeee" stroke="none" font-family="Arial" font-size="24px" font-style="normal" font-weight="normal" text-decoration="none" x="200" y="30">UNREGISTERED</text><text fill="#eeeeee" stroke="none" font-family="Arial" font-size="24px" font-style="normal" font-weight="normal" text-decoration="none" x="200" y="60">UNREGISTERED</text><text fill="#eeeeee" stroke="none" font-family="Arial" font-size="24px" font-style="normal" font-weight="normal" text-decoration="none" x="200" y="90">UNREGISTERED</text><text fill="#eeeeee" stroke="none" font-family="Arial" font-size="24px" font-style="normal" font-weight="normal" text-decoration="none" x="200" y="120">UNREGISTERED</text><text fill="#eeeeee" stroke="none" font-family="Arial" font-size="24px" font-style="normal" font-weight="normal" text-decoration="none" x="200" y="150">UNREGISTERED</text><text fill="#eeeeee" stroke="none" font-family="Arial" font-size="24px" font-style="normal" font-weight="normal" text-decoration="none" x="200" y="180">UNREGISTERED</text><text fill="#eeeeee" stroke="none" font-family="Arial" font-size="24px" font-style="normal" font-weight="normal" text-decoration="none" x="200" y="210">UNREGISTERED</text><text fill="#eeeeee" stroke="none" font-family="Arial" font-size="24px" font-style="normal" font-weight="normal" text-decoration="none" x="200" y="240">UNREGISTERED</text><text fill="#eeeeee" stroke="none" font-family="Arial" font-size="24px" font-style="normal" font-weight="normal" text-decoration="none" x="200" y="270">UNREGISTERED</text><text fill="#eeeeee" stroke="none" font-family="Arial" font-size="24px" font-style="normal" font-weight="normal" text-decoration="none" x="200" y="300">UNREGISTERED</text><text fill="#eeeeee" stroke="none" font-family="Arial" font-size="24px" font-style="normal" font-weight="normal" text-decoration="none" x="200" y="330">UNREGISTERED</text><text fill="#eeeeee" stroke="none" font-family="Arial" font-size="24px" font-style="normal" font-weight="normal" text-decoration="none" x="200" y="360">UNREGISTERED</text><text fill="#eeeeee" stroke="none" font-family="Arial" font-size="24px" font-style="normal" font-weight="normal" text-decoration="none" x="200" y="390">UNREGISTERED</text><text fill="#eeeeee" stroke="none" font-family="Arial" font-size="24px" font-style="normal" font-weight="normal" text-decoration="none" x="200" y="420">UNREGISTERED</text><text fill="#eeeeee" stroke="none" font-family="Arial" font-size="24px" font-style="normal" font-weight="normal" text-decoration="none" x="200" y="450">UNREGISTERED</text><text fill="#eeeeee" stroke="none" font-family="Arial" font-size="24px" font-style="normal" font-weight="normal" text-decoration="none" x="200" y="480">UNREGISTERED</text><text fill="#eeeeee" stroke="none" font-family="Arial" font-size="24px" font-style="normal" font-weight="normal" text-decoration="none" x="400" y="0">UNREGISTERED</text><text fill="#eeeeee" stroke="none" font-family="Arial" font-size="24px" font-style="normal" font-weight="normal" text-decoration="none" x="400" y="30">UNREGISTERED</text><text fill="#eeeeee" stroke="none" font-family="Arial" font-size="24px" font-style="normal" font-weight="normal" text-decoration="none" x="400" y="60">UNREGISTERED</text><text fill="#eeeeee" stroke="none" font-family="Arial" font-size="24px" font-style="normal" font-weight="normal" text-decoration="none" x="400" y="90">UNREGISTERED</text><text fill="#eeeeee" stroke="none" font-family="Arial" font-size="24px" font-style="normal" font-weight="normal" text-decoration="none" x="400" y="120">UNREGISTERED</text><text fill="#eeeeee" stroke="none" font-family="Arial" font-size="24px" font-style="normal" font-weight="normal" text-decoration="none" x="400" y="150">UNREGISTERED</text><text fill="#eeeeee" stroke="none" font-family="Arial" font-size="24px" font-style="normal" font-weight="normal" text-decoration="none" x="400" y="180">UNREGISTERED</text><text fill="#eeeeee" stroke="none" font-family="Arial" font-size="24px" font-style="normal" font-weight="normal" text-decoration="none" x="400" y="210">UNREGISTERED</text><text fill="#eeeeee" stroke="none" font-family="Arial" font-size="24px" font-style="normal" font-weight="normal" text-decoration="none" x="400" y="240">UNREGISTERED</text><text fill="#eeeeee" stroke="none" font-family="Arial" font-size="24px" font-style="normal" font-weight="normal" text-decoration="none" x="400" y="270">UNREGISTERED</text><text fill="#eeeeee" stroke="none" font-family="Arial" font-size="24px" font-style="normal" font-weight="normal" text-decoration="none" x="400" y="300">UNREGISTERED</text><text fill="#eeeeee" stroke="none" font-family="Arial" font-size="24px" font-style="normal" font-weight="normal" text-decoration="none" x="400" y="330">UNREGISTERED</text><text fill="#eeeeee" stroke="none" font-family="Arial" font-size="24px" font-style="normal" font-weight="normal" text-decoration="none" x="400" y="360">UNREGISTERED</text><text fill="#eeeeee" stroke="none" font-family="Arial" font-size="24px" font-style="normal" font-weight="normal" text-decoration="none" x="400" y="390">UNREGISTERED</text><text fill="#eeeeee" stroke="none" font-family="Arial" font-size="24px" font-style="normal" font-weight="normal" text-decoration="none" x="400" y="420">UNREGISTERED</text><text fill="#eeeeee" stroke="none" font-family="Arial" font-size="24px" font-style="normal" font-weight="normal" text-decoration="none" x="400" y="450">UNREGISTERED</text><text fill="#eeeeee" stroke="none" font-family="Arial" font-size="24px" font-style="normal" font-weight="normal" text-decoration="none" x="400" y="480">UNREGISTERED</text><text fill="#eeeeee" stroke="none" font-family="Arial" font-size="24px" font-style="normal" font-weight="normal" text-decoration="none" x="600" y="0">UNREGISTERED</text><text fill="#eeeeee" stroke="none" font-family="Arial" font-size="24px" font-style="normal" font-weight="normal" text-decoration="none" x="600" y="30">UNREGISTERED</text><text fill="#eeeeee" stroke="none" font-family="Arial" font-size="24px" font-style="normal" font-weight="normal" text-decoration="none" x="600" y="60">UNREGISTERED</text><text fill="#eeeeee" stroke="none" font-family="Arial" font-size="24px" font-style="normal" font-weight="normal" text-decoration="none" x="600" y="90">UNREGISTERED</text><text fill="#eeeeee" stroke="none" font-family="Arial" font-size="24px" font-style="normal" font-weight="normal" text-decoration="none" x="600" y="120">UNREGISTERED</text><text fill="#eeeeee" stroke="none" font-family="Arial" font-size="24px" font-style="normal" font-weight="normal" text-decoration="none" x="600" y="150">UNREGISTERED</text><text fill="#eeeeee" stroke="none" font-family="Arial" font-size="24px" font-style="normal" font-weight="normal" text-decoration="none" x="600" y="180">UNREGISTERED</text><text fill="#eeeeee" stroke="none" font-family="Arial" font-size="24px" font-style="normal" font-weight="normal" text-decoration="none" x="600" y="210">UNREGISTERED</text><text fill="#eeeeee" stroke="none" font-family="Arial" font-size="24px" font-style="normal" font-weight="normal" text-decoration="none" x="600" y="240">UNREGISTERED</text><text fill="#eeeeee" stroke="none" font-family="Arial" font-size="24px" font-style="normal" font-weight="normal" text-decoration="none" x="600" y="270">UNREGISTERED</text><text fill="#eeeeee" stroke="none" font-family="Arial" font-size="24px" font-style="normal" font-weight="normal" text-decoration="none" x="600" y="300">UNREGISTERED</text><text fill="#eeeeee" stroke="none" font-family="Arial" font-size="24px" font-style="normal" font-weight="normal" text-decoration="none" x="600" y="330">UNREGISTERED</text><text fill="#eeeeee" stroke="none" font-family="Arial" font-size="24px" font-style="normal" font-weight="normal" text-decoration="none" x="600" y="360">UNREGISTERED</text><text fill="#eeeeee" stroke="none" font-family="Arial" font-size="24px" font-style="normal" font-weight="normal" text-decoration="none" x="600" y="390">UNREGISTERED</text><text fill="#eeeeee" stroke="none" font-family="Arial" font-size="24px" font-style="normal" font-weight="normal" text-decoration="none" x="600" y="420">UNREGISTERED</text><text fill="#eeeeee" stroke="none" font-family="Arial" font-size="24px" font-style="normal" font-weight="normal" text-decoration="none" x="600" y="450">UNREGISTERED</text><text fill="#eeeeee" stroke="none" font-family="Arial" font-size="24px" font-style="normal" font-weight="normal" text-decoration="none" x="600" y="480">UNREGISTERED</text><text fill="#eeeeee" stroke="none" font-family="Arial" font-size="24px" font-style="normal" font-weight="normal" text-decoration="none" x="800" y="0">UNREGISTERED</text><text fill="#eeeeee" stroke="none" font-family="Arial" font-size="24px" font-style="normal" font-weight="normal" text-decoration="none" x="800" y="30">UNREGISTERED</text><text fill="#eeeeee" stroke="none" font-family="Arial" font-size="24px" font-style="normal" font-weight="normal" text-decoration="none" x="800" y="60">UNREGISTERED</text><text fill="#eeeeee" stroke="none" font-family="Arial" font-size="24px" font-style="normal" font-weight="normal" text-decoration="none" x="800" y="90">UNREGISTERED</text><text fill="#eeeeee" stroke="none" font-family="Arial" font-size="24px" font-style="normal" font-weight="normal" text-decoration="none" x="800" y="120">UNREGISTERED</text><text fill="#eeeeee" stroke="none" font-family="Arial" font-size="24px" font-style="normal" font-weight="normal" text-decoration="none" x="800" y="150">UNREGISTERED</text><text fill="#eeeeee" stroke="none" font-family="Arial" font-size="24px" font-style="normal" font-weight="normal" text-decoration="none" x="800" y="180">UNREGISTERED</text><text fill="#eeeeee" stroke="none" font-family="Arial" font-size="24px" font-style="normal" font-weight="normal" text-decoration="none" x="800" y="210">UNREGISTERED</text><text fill="#eeeeee" stroke="none" font-family="Arial" font-size="24px" font-style="normal" font-weight="normal" text-decoration="none" x="800" y="240">UNREGISTERED</text><text fill="#eeeeee" stroke="none" font-family="Arial" font-size="24px" font-style="normal" font-weight="normal" text-decoration="none" x="800" y="270">UNREGISTERED</text><text fill="#eeeeee" stroke="none" font-family="Arial" font-size="24px" font-style="normal" font-weight="normal" text-decoration="none" x="800" y="300">UNREGISTERED</text><text fill="#eeeeee" stroke="none" font-family="Arial" font-size="24px" font-style="normal" font-weight="normal" text-decoration="none" x="800" y="330">UNREGISTERED</text><text fill="#eeeeee" stroke="none" font-family="Arial" font-size="24px" font-style="normal" font-weight="normal" text-decoration="none" x="800" y="360">UNREGISTERED</text><text fill="#eeeeee" stroke="none" font-family="Arial" font-size="24px" font-style="normal" font-weight="normal" text-decoration="none" x="800" y="390">UNREGISTERED</text><text fill="#eeeeee" stroke="none" font-family="Arial" font-size="24px" font-style="normal" font-weight="normal" text-decoration="none" x="800" y="420">UNREGISTERED</text><text fill="#eeeeee" stroke="none" font-family="Arial" font-size="24px" font-style="normal" font-weight="normal" text-decoration="none" x="800" y="450">UNREGISTERED</text><text fill="#eeeeee" stroke="none" font-family="Arial" font-size="24px" font-style="normal" font-weight="normal" text-decoration="none" x="800" y="480">UNREGISTERED</text><g transform="translate(-38,-134) scale(1,1)"><rect fill="#C0C0C0" stroke="none" x="55" y="151" width="336" height="15" opacity="0.2"/></g><g transform="translate(-38,-134) scale(1,1)"><rect fill="#C0C0C0" stroke="none" x="55" y="165" width="840" height="474" opacity="0.2"/></g><g transform="translate(-38,-134) scale(1,1)"><rect fill="#ffffff" stroke="none" x="48" y="159" width="840" height="473"/></g><g transform="translate(-38,-134) scale(1,1)"><path fill="none" stroke="#000000" d="M 48 159 L 888 159 L 888 632 L 48 632 L 48 159 Z Z" stroke-miterlimit="10"/></g><g transform="translate(-38,-134) scale(1,1)"><rect fill="#ffffff" stroke="none" x="48" y="144" width="336" height="15"/></g><g transform="translate(-38,-134) scale(1,1)"><path fill="none" stroke="#000000" d="M 48 144 L 384 144 L 384 159 L 48 159 L 48 144 Z Z" stroke-miterlimit="10"/></g><g transform="translate(-38,-134) scale(1,1)"><rect fill="#ffffff" stroke="none" x="48" y="158" width="840" height="474"/></g><g transform="translate(-38,-134) scale(1,1)"><path fill="none" stroke="#000000" d="M 48 158 L 888 158 L 888 632 L 48 632 L 48 158 Z Z" stroke-miterlimit="10"/></g><g transform="translate(-38,-134) scale(1,1)"><g><path fill="none" stroke="none"/><text fill="#000000" stroke="none" font-family="Arial" font-size="13px" font-style="normal" font-weight="bold" text-decoration="none" x="444.513671875" y="178.5">fenetres</text></g></g><g transform="translate(-38,-134) scale(1,1)"><rect fill="#C0C0C0" stroke="none" x="735" y="343" width="78.36083984375" height="44" opacity="0.2"/></g><g transform="translate(-38,-134) scale(1,1)"><rect fill="#ffffff" stroke="none" x="728" y="336" width="78.36083984375" height="44"/></g><g transform="translate(-38,-134) scale(1,1)"><path fill="none" stroke="#000000" d="M 728 336 L 806.36083984375 336 L 806.36083984375 380 L 728 380 L 728 336 Z Z" stroke-miterlimit="10"/></g><g transform="translate(-38,-134) scale(1,1)"><path fill="none" stroke="#000000" d="M 728 361 L 806.36083984375 361" stroke-miterlimit="10"/></g><g transform="translate(-38,-134) scale(1,1)"><path fill="none" stroke="#000000" d="M 728 371 L 806.36083984375 371" stroke-miterlimit="10"/></g><g transform="translate(-38,-134) scale(1,1)"><g><path fill="none" stroke="none"/><text fill="#000000" stroke="none" font-family="Arial" font-size="13px" font-style="normal" font-weight="bold" text-decoration="none" x="734.299560546875" y="355.5">FenetreJeu</text></g></g><g transform="translate(-38,-134) scale(1,1)"><rect fill="#C0C0C0" stroke="none" x="575" y="551" width="86.2890625" height="44" opacity="0.2"/></g><g transform="translate(-38,-134) scale(1,1)"><rect fill="#ffffff" stroke="none" x="568" y="544" width="86.2890625" height="44"/></g><g transform="translate(-38,-134) scale(1,1)"><path fill="none" stroke="#000000" d="M 568 544 L 654.2890625 544 L 654.2890625 588 L 568 588 L 568 544 Z Z" stroke-miterlimit="10"/></g><g transform="translate(-38,-134) scale(1,1)"><path fill="none" stroke="#000000" d="M 568 569 L 654.2890625 569" stroke-miterlimit="10"/></g><g transform="translate(-38,-134) scale(1,1)"><path fill="none" stroke="#000000" d="M 568 579 L 654.2890625 579" stroke-miterlimit="10"/></g><g transform="translate(-38,-134) scale(1,1)"><g><path fill="none" stroke="none"/><text fill="#000000" stroke="none" font-family="Arial" font-size="13px" font-style="normal" font-weight="bold" text-decoration="none" x="574.2900390625" y="563.5">MenuDefaite</text></g></g><g transform="translate(-38,-134) scale(1,1)"><rect fill="#C0C0C0" stroke="none" x="743" y="551" width="90.3896484375" height="44" opacity="0.2"/></g><g transform="translate(-38,-134) scale(1,1)"><rect fill="#ffffff" stroke="none" x="736" y="544" width="90.3896484375" height="44"/></g><g transform="translate(-38,-134) scale(1,1)"><path fill="none" stroke="#000000" d="M 736 544 L 826.3896484375 544 L 826.3896484375 588 L 736 588 L 736 544 Z Z" stroke-miterlimit="10"/></g><g transform="translate(-38,-134) scale(1,1)"><path fill="none" stroke="#000000" d="M 736 569 L 826.3896484375 569" stroke-miterlimit="10"/></g><g transform="translate(-38,-134) scale(1,1)"><path fill="none" stroke="#000000" d="M 736 579 L 826.3896484375 579" stroke-miterlimit="10"/></g><g transform="translate(-38,-134) scale(1,1)"><g><path fill="none" stroke="none"/><text fill="#000000" stroke="none" font-family="Arial" font-size="13px" font-style="normal" font-weight="bold" text-decoration="none" x="743.378662109375" y="563.5">MenuVictoire</text></g></g><g transform="translate(-38,-134) scale(1,1)"><rect fill="#C0C0C0" stroke="none" x="231" y="407" width="97.84814453125" height="44" opacity="0.2"/></g><g transform="translate(-38,-134) scale(1,1)"><rect fill="#ffffff" stroke="none" x="224" y="400" width="97.84814453125" height="44"/></g><g transform="translate(-38,-134) scale(1,1)"><path fill="none" stroke="#000000" d="M 224 400 L 321.84814453125 400 L 321.84814453125 444 L 224 444 L 224 400 Z Z" stroke-miterlimit="10"/></g><g transform="translate(-38,-134) scale(1,1)"><path fill="none" stroke="#000000" d="M 224 425 L 321.84814453125 425" stroke-miterlimit="10"/></g><g transform="translate(-38,-134) scale(1,1)"><path fill="none" stroke="#000000" d="M 224 435 L 321.84814453125 435" stroke-miterlimit="10"/></g><g transform="translate(-38,-134) scale(1,1)"><g><path fill="none" stroke="none"/><text fill="#000000" stroke="none" font-family="Arial" font-size="13px" font-style="normal" font-weight="bold" text-decoration="none" x="231.7373046875" y="419.5">MenuPrincipal</text></g></g><g transform="translate(-38,-134) scale(1,1)"><rect fill="#C0C0C0" stroke="none" x="311" y="231" width="92.04638671875" height="44" opacity="0.2"/></g><g transform="translate(-38,-134) scale(1,1)"><rect fill="#ffffff" stroke="none" x="304" y="224" width="92.04638671875" height="44"/></g><g transform="translate(-38,-134) scale(1,1)"><path fill="none" stroke="#000000" d="M 304 224 L 396.04638671875 224 L 396.04638671875 268 L 304 268 L 304 224 Z Z" stroke-miterlimit="10"/></g><g transform="translate(-38,-134) scale(1,1)"><path fill="none" stroke="#000000" d="M 304 249 L 396.04638671875 249" stroke-miterlimit="10"/></g><g transform="translate(-38,-134) scale(1,1)"><path fill="none" stroke="#000000" d="M 304 259 L 396.04638671875 259" stroke-miterlimit="10"/></g><g transform="translate(-38,-134) scale(1,1)"><g><path fill="none" stroke="none"/><text fill="#000000" stroke="none" font-family="Arial" font-size="13px" font-style="normal" font-weight="bold" text-decoration="none" x="311.36279296875" y="243.5">MenuOptions</text></g></g><g transform="translate(-38,-134) scale(1,1)"><rect fill="#C0C0C0" stroke="none" x="359" y="551" width="78.341796875" height="44" opacity="0.2"/></g><g transform="translate(-38,-134) scale(1,1)"><rect fill="#ffffff" stroke="none" x="352" y="544" width="78.341796875" height="44"/></g><g transform="translate(-38,-134) scale(1,1)"><path fill="none" stroke="#000000" d="M 352 544 L 430.341796875 544 L 430.341796875 588 L 352 588 L 352 544 Z Z" stroke-miterlimit="10"/></g><g transform="translate(-38,-134) scale(1,1)"><path fill="none" stroke="#000000" d="M 352 569 L 430.341796875 569" stroke-miterlimit="10"/></g><g transform="translate(-38,-134) scale(1,1)"><path fill="none" stroke="#000000" d="M 352 579 L 430.341796875 579" stroke-miterlimit="10"/></g><g transform="translate(-38,-134) scale(1,1)"><g><path fill="none" stroke="none"/><text fill="#000000" stroke="none" font-family="Arial" font-size="13px" font-style="normal" font-weight="bold" text-decoration="none" x="358.65185546875" y="563.5">MenuJouer</text></g></g><g transform="translate(-38,-134) scale(1,1)"><path fill="none" stroke="#000000" d="M 282 399 L 340 269" stroke-miterlimit="10" stroke-dasharray="3"/></g><g transform="translate(-38,-134) scale(1,1)"><path fill="none" stroke="#000000" d="M 339.703566306405 279.9960050502581 L 340 269 L 332.0150399880878 276.5657394620858" stroke-miterlimit="10"/></g><g transform="translate(-38,-134) scale(1,1)"><path fill="none" stroke="#000000" d="M 291 445 L 372 543" stroke-miterlimit="10" stroke-dasharray="3"/></g><g transform="translate(-38,-134) scale(1,1)"><path fill="none" stroke="#000000" d="M 362.28084524912686 537.8484923635327 L 372 543 L 368.7701857513364 532.4848537851759" stroke-miterlimit="10"/></g><g transform="translate(-38,-134) scale(1,1)"><path fill="none" stroke="#000000" d="M 372 543 L 291 445" stroke-miterlimit="10" stroke-dasharray="3"/></g><g transform="translate(-38,-134) scale(1,1)"><path fill="none" stroke="#000000" d="M 300.71915475087314 450.1515076364672 L 291 445 L 294.22981424866356 455.5151462148241" stroke-miterlimit="10"/></g><g transform="translate(-38,-134) scale(1,1)"><path fill="none" stroke="#000000" d="M 340 269 L 282 399" stroke-miterlimit="10" stroke-dasharray="3"/></g><g transform="translate(-38,-134) scale(1,1)"><path fill="none" stroke="#000000" d="M 282.296433693595 388.0039949497419 L 282 399 L 289.9849600119122 391.4342605379142" stroke-miterlimit="10"/></g><g transform="translate(-38,-134) scale(1,1)"><rect fill="#C0C0C0" stroke="none" x="447" y="407" width="122.40087890625" height="44" opacity="0.2"/></g><g transform="translate(-38,-134) scale(1,1)"><rect fill="#ffffff" stroke="none" x="440" y="400" width="122.40087890625" height="44"/></g><g transform="translate(-38,-134) scale(1,1)"><path fill="none" stroke="#000000" d="M 440 400 L 562.40087890625 400 L 562.40087890625 444 L 440 444 L 440 400 Z Z" stroke-miterlimit="10"/></g><g transform="translate(-38,-134) scale(1,1)"><path fill="none" stroke="#000000" d="M 440 425 L 562.40087890625 425" stroke-miterlimit="10"/></g><g transform="translate(-38,-134) scale(1,1)"><path fill="none" stroke="#000000" d="M 440 435 L 562.40087890625 435" stroke-miterlimit="10"/></g><g transform="translate(-38,-134) scale(1,1)"><g><path fill="none" stroke="none"/><text fill="#000000" stroke="none" font-family="Arial" font-size="13px" font-style="normal" font-weight="bold" text-decoration="none" x="447.36279296875" y="419.5">MenuDebutNiveau</text></g></g><g transform="translate(-38,-134) scale(1,1)"><path fill="none" stroke="#000000" d="M 409 543 L 483 445" stroke-miterlimit="10" stroke-dasharray="3"/></g><g transform="translate(-38,-134) scale(1,1)"><path fill="none" stroke="#000000" d="M 480.23531434624385 455.646901579141 L 483 445 L 473.5165757211435 450.57356833161623" stroke-miterlimit="10"/></g><g transform="translate(-38,-134) scale(1,1)"><path fill="none" stroke="#000000" d="M 483 445 L 409 543" stroke-miterlimit="10" stroke-dasharray="3"/></g><g transform="translate(-38,-134) scale(1,1)"><path fill="none" stroke="#000000" d="M 411.76468565375615 532.353098420859 L 409 543 L 418.4834242788565 537.4264316683838" stroke-miterlimit="10"/></g><g transform="translate(-38,-134) scale(1,1)"><rect fill="#C0C0C0" stroke="none" x="607" y="231" width="81.24267578125" height="44" opacity="0.2"/></g><g transform="translate(-38,-134) scale(1,1)"><rect fill="#ffffff" stroke="none" x="600" y="224" width="81.24267578125" height="44"/></g><g transform="translate(-38,-134) scale(1,1)"><path fill="none" stroke="#000000" d="M 600 224 L 681.24267578125 224 L 681.24267578125 268 L 600 268 L 600 224 Z Z" stroke-miterlimit="10"/></g><g transform="translate(-38,-134) scale(1,1)"><path fill="none" stroke="#000000" d="M 600 249 L 681.24267578125 249" stroke-miterlimit="10"/></g><g transform="translate(-38,-134) scale(1,1)"><path fill="none" stroke="#000000" d="M 600 259 L 681.24267578125 259" stroke-miterlimit="10"/></g><g transform="translate(-38,-134) scale(1,1)"><g><path fill="none" stroke="none"/><text fill="#000000" stroke="none" font-family="Arial" font-size="13px" font-style="normal" font-weight="bold" text-decoration="none" x="605.931396484375" y="243.5">MenuPause</text></g></g><g transform="translate(-38,-134) scale(1,1)"><path fill="none" stroke="#000000" d="M 563 407 L 727 368" stroke-miterlimit="10" stroke-dasharray="3"/></g><g transform="translate(-38,-134) scale(1,1)"><path fill="none" stroke="#000000" d="M 718.0869256288759 374.4464800670451 L 727 368 L 716.1391549007666 366.25585444114967" stroke-miterlimit="10"/></g><g transform="translate(-38,-134) scale(1,1)"><path fill="none" stroke="#000000" d="M 666 269 L 741 335" stroke-miterlimit="10" stroke-dasharray="3"/></g><g transform="translate(-38,-134) scale(1,1)"><path fill="none" stroke="#000000" d="M 730.589817762623 331.4463953815032 L 741 335 L 736.1516674699579 325.12611162316813" stroke-miterlimit="10"/></g><g transform="translate(-38,-134) scale(1,1)"><path fill="none" stroke="#000000" d="M 741 335 L 666 269" stroke-miterlimit="10" stroke-dasharray="3"/></g><g transform="translate(-38,-134) scale(1,1)"><path fill="none" stroke="#000000" d="M 676.410182237377 272.5536046184968 L 666 269 L 670.8483325300421 278.8738883768319" stroke-miterlimit="10"/></g><g transform="translate(-38,-134) scale(1,1)"><path fill="none" stroke="#000000" d="M 622 269 L 519 399" stroke-miterlimit="10" stroke-dasharray="3"/></g><g transform="translate(-38,-134) scale(1,1)"><path fill="none" stroke="#000000" d="M 522.0117153090167 388.42032274133874 L 519 399 L 528.6105658503735 393.64864278564454" stroke-miterlimit="10"/></g><g transform="translate(-38,-134) scale(1,1)"><path fill="none" stroke="#000000" d="M 750 381 L 628 543" stroke-miterlimit="10" stroke-dasharray="3"/></g><g transform="translate(-38,-134) scale(1,1)"><path fill="none" stroke="#000000" d="M 630.7510028153274 532.3495547740923 L 628 543 L 637.4762547876766 537.4142507038861" stroke-miterlimit="10"/></g><g transform="translate(-38,-134) scale(1,1)"><path fill="none" stroke="#000000" d="M 593 543 L 519 445" stroke-miterlimit="10" stroke-dasharray="3"/></g><g transform="translate(-38,-134) scale(1,1)"><path fill="none" stroke="#000000" d="M 528.4834242788564 450.57356833161623 L 519 445 L 521.7646856537561 455.646901579141" stroke-miterlimit="10"/></g><g transform="translate(-38,-134) scale(1,1)"><path fill="none" stroke="#000000" d="M 769 381 L 779 543" stroke-miterlimit="10" stroke-dasharray="3"/></g><g transform="translate(-38,-134) scale(1,1)"><path fill="none" stroke="#000000" d="M 774.1723455251366 533.1159850125907 L 779 543 L 782.5753868065451 532.5972787606519" stroke-miterlimit="10"/></g><g transform="translate(-38,-134) scale(1,1)"><path fill="none" stroke="#000000" d="M 736 543 L 546 445" stroke-miterlimit="10" stroke-dasharray="3"/></g><g transform="translate(-38,-134) scale(1,1)"><path fill="none" stroke="#000000" d="M 556.9616747450589 445.9174348933508 L 546 445 L 553.102350111007 453.399798979778" stroke-miterlimit="10"/></g><g transform="translate(-38,-134) scale(1,1)"><path fill="none" stroke="#000000" d="M 599 246 L 397 246" stroke-miterlimit="10" stroke-dasharray="3"/></g><g transform="translate(-38,-134) scale(1,1)"><path fill="none" stroke="#000000" d="M 407.16267485762415 241.790482243984 L 397 246 L 407.16267485762415 250.209517756016" stroke-miterlimit="10"/></g><g transform="translate(-38,-134) scale(1,1)"><path fill="none" stroke="#000000" d="M 397 246 L 599 246" stroke-miterlimit="10" stroke-dasharray="3"/></g><g transform="translate(-38,-134) scale(1,1)"><path fill="none" stroke="#000000" d="M 588.8373251423759 250.209517756016 L 599 246 L 588.8373251423758 241.790482243984" stroke-miterlimit="10"/></g><g transform="translate(-38,-134) scale(1,1)"><rect fill="#C0C0C0" stroke="none" x="87" y="207" width="154.1962890625" height="165" opacity="0.2"/></g><g transform="translate(-38,-134) scale(1,1)"><rect fill="#ffffff" stroke="none" x="80" y="200" width="154.1962890625" height="165"/></g><g transform="translate(-38,-134) scale(1,1)"><path fill="none" stroke="#000000" d="M 80 200 L 234.1962890625 200 L 234.1962890625 365 L 80 365 L 80 200 Z Z" stroke-miterlimit="10"/></g><g transform="translate(-38,-134) scale(1,1)"><path fill="none" stroke="#000000" d="M 80 238 L 234.1962890625 238" stroke-miterlimit="10"/></g><g transform="translate(-38,-134) scale(1,1)"><g><path fill="none" stroke="none"/><text fill="#000000" stroke="none" font-family="Arial" font-size="13px" font-style="normal" font-weight="normal" text-decoration="none" x="113.734130859375" y="217.5">«enumeration»</text></g></g><g transform="translate(-38,-134) scale(1,1)"><g><path fill="none" stroke="none"/><text fill="#000000" stroke="none" font-family="Arial" font-size="13px" font-style="normal" font-weight="bold" text-decoration="none" x="120.9736328125" y="232.5">NomFenetre</text></g></g><g transform="translate(-38,-134) scale(1,1)"><g><path fill="none" stroke="none"/><text fill="#000000" stroke="none" font-family="Arial" font-size="13px" font-style="normal" font-weight="normal" text-decoration="none" x="85" y="255.5">MENU_PRINCIPAL</text></g></g><g transform="translate(-38,-134) scale(1,1)"><g><path fill="none" stroke="none"/><text fill="#000000" stroke="none" font-family="Arial" font-size="13px" font-style="normal" font-weight="normal" text-decoration="none" x="85" y="270.5">MENU_JOUER</text></g></g><g transform="translate(-38,-134) scale(1,1)"><g><path fill="none" stroke="none"/><text fill="#000000" stroke="none" font-family="Arial" font-size="13px" font-style="normal" font-weight="normal" text-decoration="none" x="85" y="285.5">MENU_DEBUT_NIVEAU</text></g></g><g transform="translate(-38,-134) scale(1,1)"><g><path fill="none" stroke="none"/><text fill="#000000" stroke="none" font-family="Arial" font-size="13px" font-style="normal" font-weight="normal" text-decoration="none" x="85" y="300.5">MENU_OPTIONS</text></g></g><g transform="translate(-38,-134) scale(1,1)"><g><path fill="none" stroke="none"/><text fill="#000000" stroke="none" font-family="Arial" font-size="13px" font-style="normal" font-weight="normal" text-decoration="none" x="85" y="315.5">MENU_PAUSE</text></g></g><g transform="translate(-38,-134) scale(1,1)"><g><path fill="none" stroke="none"/><text fill="#000000" stroke="none" font-family="Arial" font-size="13px" font-style="normal" font-weight="normal" text-decoration="none" x="85" y="330.5">MENU_VICTOIRE</text></g></g><g transform="translate(-38,-134) scale(1,1)"><g><path fill="none" stroke="none"/><text fill="#000000" stroke="none" font-family="Arial" font-size="13px" font-style="normal" font-weight="normal" text-decoration="none" x="85" y="345.5">MENU_DEFAITE</text></g></g><g transform="translate(-38,-134) scale(1,1)"><g><path fill="none" stroke="none"/><text fill="#000000" stroke="none" font-family="Arial" font-size="13px" font-style="normal" font-weight="normal" text-decoration="none" x="85" y="360.5">FENETRE_JEU</text></g></g></g></svg>