<svg version="1.1" xmlns="http://www.w3.org/2000/svg" xmlns:xlink="http://www.w3.org/1999/xlink" width="764" height="652"><defs/><g><text fill="#eeeeee" stroke="none" font-family="Arial" font-size="24px" font-style="normal" font-weight="normal" text-decoration="none" x="0" y="0">UNREGISTERED</text><text fill="#eeeeee" stroke="none" font-family="Arial" font-size="24px" font-style="normal" font-weight="normal" text-decoration="none" x="0" y="30">UNREGISTERED</text><text fill="#eeeeee" stroke="none" font-family="Arial" font-size="24px" font-style="normal" font-weight="normal" text-decoration="none" x="0" y="60">UNREGISTERED</text><text fill="#eeeeee" stroke="none" font-family="Arial" font-size="24px" font-style="normal" font-weight="normal" text-decoration="none" x="0" y="90">UNREGISTERED</text><text fill="#eeeeee" stroke="none" font-family="Arial" font-size="24px" font-style="normal" font-weight="normal" text-decoration="none" x="0" y="120">UNREGISTERED</text><text fill="#eeeeee" stroke="none" font-family="Arial" font-size="24px" font-style="normal" font-weight="normal" text-decoration="none" x="0" y="150">UNREGISTERED</text><text fill="#eeeeee" stroke="none" font-family="Arial" font-size="24px" font-style="normal" font-weight="normal" text-decoration="none" x="0" y="180">UNREGISTERED</text><text fill="#eeeeee" stroke="none" font-family="Arial" font-size="24px" font-style="normal" font-weight="normal" text-decoration="none" x="0" y="210">UNREGISTERED</text><text fill="#eeeeee" stroke="none" font-family="Arial" font-size="24px" font-style="normal" font-weight="normal" text-decoration="none" x="0" y="240">UNREGISTERED</text><text fill="#eeeeee" stroke="none" font-family="Arial" font-size="24px" font-style="normal" font-weight="normal" text-decoration="none" x="0" y="270">UNREGISTERED</text><text fill="#eeeeee" stroke="none" font-family="Arial" font-size="24px" font-style="normal" font-weight="normal" text-decoration="none" x="0" y="300">UNREGISTERED</text><text fill="#eeeeee" stroke="none" font-family="Arial" font-size="24px" font-style="normal" font-weight="normal" text-decoration="none" x="0" y="330">UNREGISTERED</text><text fill="#eeeeee" stroke="none" font-family="Arial" font-size="24px" font-style="normal" font-weight="normal" text-decoration="none" x="0" y="360">UNREGISTERED</text><text fill="#eeeeee" stroke="none" font-family="Arial" font-size="24px" font-style="normal" font-weight="normal" text-decoration="none" x="0" y="390">UNREGISTERED</text><text fill="#eeeeee" stroke="none" font-family="Arial" font-size="24px" font-style="normal" font-weight="normal" text-decoration="none" x="0" y="420">UNREGISTERED</text><text fill="#eeeeee" stroke="none" font-family="Arial" font-size="24px" font-style="normal" font-weight="normal" text-decoration="none" x="0" y="450">UNREGISTERED</text><text fill="#eeeeee" stroke="none" font-family="Arial" font-size="24px" font-style="normal" font-weight="normal" text-decoration="none" x="0" y="480">UNREGISTERED</text><text fill="#eeeeee" stroke="none" font-family="Arial" font-size="24px" font-style="normal" font-weight="normal" text-decoration="none" x="0" y="510">UNREGISTERED</text><text fill="#eeeeee" stroke="none" font-family="Arial" font-size="24px" font-style="normal" font-weight="normal" text-decoration="none" x="0" y="540">UNREGISTERED</text><text fill="#eeeeee" stroke="none" font-family="Arial" font-size="24px" font-style="normal" font-weight="normal" text-decoration="none" x="0" y="570">UNREGISTERED</text><text fill="#eeeeee" stroke="none" font-family="Arial" font-size="24px" font-style="normal" font-weight="normal" text-decoration="none" x="0" y="600">UNREGISTERED</text><text fill="#eeeeee" stroke="none" font-family="Arial" font-size="24px" font-style="normal" font-weight="normal" text-decoration="none" x="0" y="630">UNREGISTERED</text><text fill="#eeeeee" stroke="none" font-family="Arial" font-size="24px" font-style="normal" font-weight="normal" text-decoration="none" x="200" y="0">UNREGISTERED</text><text fill="#eeeeee" stroke="none" font-family="Arial" font-size="24px" font-style="normal" font-weight="normal" text-decoration="none" x="200" y="30">UNREGISTERED</text><text fill="#eeeeee" stroke="none" font-family="Arial" font-size="24px" font-style="normal" font-weight="normal" text-decoration="none" x="200" y="60">UNREGISTERED</text><text fill="#eeeeee" stroke="none" font-family="Arial" font-size="24px" font-style="normal" font-weight="normal" text-decoration="none" x="200" y="90">UNREGISTERED</text><text fill="#eeeeee" stroke="none" font-family="Arial" font-size="24px" font-style="normal" font-weight="normal" text-decoration="none" x="200" y="120">UNREGISTERED</text><text fill="#eeeeee" stroke="none" font-family="Arial" font-size="24px" font-style="normal" font-weight="normal" text-decoration="none" x="200" y="150">UNREGISTERED</text><text fill="#eeeeee" stroke="none" font-family="Arial" font-size="24px" font-style="normal" font-weight="normal" text-decoration="none" x="200" y="180">UNREGISTERED</text><text fill="#eeeeee" stroke="none" font-family="Arial" font-size="24px" font-style="normal" font-weight="normal" text-decoration="none" x="200" y="210">UNREGISTERED</text><text fill="#eeeeee" stroke="none" font-family="Arial" font-size="24px" font-style="normal" font-weight="normal" text-decoration="none" x="200" y="240">UNREGISTERED</text><text fill="#eeeeee" stroke="none" font-family="Arial" font-size="24px" font-style="normal" font-weight="normal" text-decoration="none" x="200" y="270">UNREGISTERED</text><text fill="#eeeeee" stroke="none" font-family="Arial" font-size="24px" font-style="normal" font-weight="normal" text-decoration="none" x="200" y="300">UNREGISTERED</text><text fill="#eeeeee" stroke="none" font-family="Arial" font-size="24px" font-style="normal" font-weight="normal" text-decoration="none" x="200" y="330">UNREGISTERED</text><text fill="#eeeeee" stroke="none" font-family="Arial" font-size="24px" font-style="normal" font-weight="normal" text-decoration="none" x="200" y="360">UNREGISTERED</text><text fill="#eeeeee" stroke="none" font-family="Arial" font-size="24px" font-style="normal" font-weight="normal" text-decoration="none" x="200" y="390">UNREGISTERED</text><text fill="#eeeeee" stroke="none" font-family="Arial" font-size="24px" font-style="normal" font-weight="normal" text-decoration="none" x="200" y="420">UNREGISTERED</text><text fill="#eeeeee" stroke="none" font-family="Arial" font-size="24px" font-style="normal" font-weight="normal" text-decoration="none" x="200" y="450">UNREGISTERED</text><text fill="#eeeeee" stroke="none" font-family="Arial" font-size="24px" font-style="normal" font-weight="normal" text-decoration="none" x="200" y="480">UNREGISTERED</text><text fill="#eeeeee" stroke="none" font-family="Arial" font-size="24px" font-style="normal" font-weight="normal" text-decoration="none" x="200" y="510">UNREGISTERED</text><text fill="#eeeeee" stroke="none" font-family="Arial" font-size="24px" font-style="normal" font-weight="normal" text-decoration="none" x="200" y="540">UNREGISTERED</text><text fill="#eeeeee" stroke="none" font-family="Arial" font-size="24px" font-style="normal" font-weight="normal" text-decoration="none" x="200" y="570">UNREGISTERED</text><text fill="#eeeeee" stroke="none" font-family="Arial" font-size="24px" font-style="normal" font-weight="normal" text-decoration="none" x="200" y="600">UNREGISTERED</text><text fill="#eeeeee" stroke="none" font-family="Arial" font-size="24px" font-style="normal" font-weight="normal" text-decoration="none" x="200" y="630">UNREGISTERED</text><text fill="#eeeeee" stroke="none" font-family="Arial" font-size="24px" font-style="normal" font-weight="normal" text-decoration="none" x="400" y="0">UNREGISTERED</text><text fill="#eeeeee" stroke="none" font-family="Arial" font-size="24px" font-style="normal" font-weight="normal" text-decoration="none" x="400" y="30">UNREGISTERED</text><text fill="#eeeeee" stroke="none" font-family="Arial" font-size="24px" font-style="normal" font-weight="normal" text-decoration="none" x="400" y="60">UNREGISTERED</text><text fill="#eeeeee" stroke="none" font-family="Arial" font-size="24px" font-style="normal" font-weight="normal" text-decoration="none" x="400" y="90">UNREGISTERED</text><text fill="#eeeeee" stroke="none" font-family="Arial" font-size="24px" font-style="normal" font-weight="normal" text-decoration="none" x="400" y="120">UNREGISTERED</text><text fill="#eeeeee" stroke="none" font-family="Arial" font-size="24px" font-style="normal" font-weight="normal" text-decoration="none" x="400" y="150">UNREGISTERED</text><text fill="#eeeeee" stroke="none" font-family="Arial" font-size="24px" font-style="normal" font-weight="normal" text-decoration="none" x="400" y="180">UNREGISTERED</text><text fill="#eeeeee" stroke="none" font-family="Arial" font-size="24px" font-style="normal" font-weight="normal" text-decoration="none" x="400" y="210">UNREGISTERED</text><text fill="#eeeeee" stroke="none" font-family="Arial" font-size="24px" font-style="normal" font-weight="normal" text-decoration="none" x="400" y="240">UNREGISTERED</text><text fill="#eeeeee" stroke="none" font-family="Arial" font-size="24px" font-style="normal" font-weight="normal" text-decoration="none" x="400" y="270">UNREGISTERED</text><text fill="#eeeeee" stroke="none" font-family="Arial" font-size="24px" font-style="normal" font-weight="normal" text-decoration="none" x="400" y="300">UNREGISTERED</text><text fill="#eeeeee" stroke="none" font-family="Arial" font-size="24px" font-style="normal" font-weight="normal" text-decoration="none" x="400" y="330">UNREGISTERED</text><text fill="#eeeeee" stroke="none" font-family="Arial" font-size="24px" font-style="normal" font-weight="normal" text-decoration="none" x="400" y="360">UNREGISTERED</text><text fill="#eeeeee" stroke="none" font-family="Arial" font-size="24px" font-style="normal" font-weight="normal" text-decoration="none" x="400" y="390">UNREGISTERED</text><text fill="#eeeeee" stroke="none" font-family="Arial" font-size="24px" font-style="normal" font-weight="normal" text-decoration="none" x="400" y="420">UNREGISTERED</text><text fill="#eeeeee" stroke="none" font-family="Arial" font-size="24px" font-style="normal" font-weight="normal" text-decoration="none" x="400" y="450">UNREGISTERED</text><text fill="#eeeeee" stroke="none" font-family="Arial" font-size="24px" font-style="normal" font-weight="normal" text-decoration="none" x="400" y="480">UNREGISTERED</text><text fill="#eeeeee" stroke="none" font-family="Arial" font-size="24px" font-style="normal" font-weight="normal" text-decoration="none" x="400" y="510">UNREGISTERED</text><text fill="#eeeeee" stroke="none" font-family="Arial" font-size="24px" font-style="normal" font-weight="normal" text-decoration="none" x="400" y="540">UNREGISTERED</text><text fill="#eeeeee" stroke="none" font-family="Arial" font-size="24px" font-style="normal" font-weight="normal" text-decoration="none" x="400" y="570">UNREGISTERED</text><text fill="#eeeeee" stroke="none" font-family="Arial" font-size="24px" font-style="normal" font-weight="normal" text-decoration="none" x="400" y="600">UNREGISTERED</text><text fill="#eeeeee" stroke="none" font-family="Arial" font-size="24px" font-style="normal" font-weight="normal" text-decoration="none" x="400" y="630">UNREGISTERED</text><text fill="#eeeeee" stroke="none" font-family="Arial" font-size="24px" font-style="normal" font-weight="normal" text-decoration="none" x="600" y="0">UNREGISTERED</text><text fill="#eeeeee" stroke="none" font-family="Arial" font-size="24px" font-style="normal" font-weight="normal" text-decoration="none" x="600" y="30">UNREGISTERED</text><text fill="#eeeeee" stroke="none" font-family="Arial" font-size="24px" font-style="normal" font-weight="normal" text-decoration="none" x="600" y="60">UNREGISTERED</text><text fill="#eeeeee" stroke="none" font-family="Arial" font-size="24px" font-style="normal" font-weight="normal" text-decoration="none" x="600" y="90">UNREGISTERED</text><text fill="#eeeeee" stroke="none" font-family="Arial" font-size="24px" font-style="normal" font-weight="normal" text-decoration="none" x="600" y="120">UNREGISTERED</text><text fill="#eeeeee" stroke="none" font-family="Arial" font-size="24px" font-style="normal" font-weight="normal" text-decoration="none" x="600" y="150">UNREGISTERED</text><text fill="#eeeeee" stroke="none" font-family="Arial" font-size="24px" font-style="normal" font-weight="normal" text-decoration="none" x="600" y="180">UNREGISTERED</text><text fill="#eeeeee" stroke="none" font-family="Arial" font-size="24px" font-style="normal" font-weight="normal" text-decoration="none" x="600" y="210">UNREGISTERED</text><text fill="#eeeeee" stroke="none" font-family="Arial" font-size="24px" font-style="normal" font-weight="normal" text-decoration="none" x="600" y="240">UNREGISTERED</text><text fill="#eeeeee" stroke="none" font-family="Arial" font-size="24px" font-style="normal" font-weight="normal" text-decoration="none" x="600" y="270">UNREGISTERED</text><text fill="#eeeeee" stroke="none" font-family="Arial" font-size="24px" font-style="normal" font-weight="normal" text-decoration="none" x="600" y="300">UNREGISTERED</text><text fill="#eeeeee" stroke="none" font-family="Arial" font-size="24px" font-style="normal" font-weight="normal" text-decoration="none" x="600" y="330">UNREGISTERED</text><text fill="#eeeeee" stroke="none" font-family="Arial" font-size="24px" font-style="normal" font-weight="normal" text-decoration="none" x="600" y="360">UNREGISTERED</text><text fill="#eeeeee" stroke="none" font-family="Arial" font-size="24px" font-style="normal" font-weight="normal" text-decoration="none" x="600" y="390">UNREGISTERED</text><text fill="#eeeeee" stroke="none" font-family="Arial" font-size="24px" font-style="normal" font-weight="normal" text-decoration="none" x="600" y="420">UNREGISTERED</text><text fill="#eeeeee" stroke="none" font-family="Arial" font-size="24px" font-style="normal" font-weight="normal" text-decoration="none" x="600" y="450">UNREGISTERED</text><text fill="#eeeeee" stroke="none" font-family="Arial" font-size="24px" font-style="normal" font-weight="normal" text-decoration="none" x="600" y="480">UNREGISTERED</text><text fill="#eeeeee" stroke="none" font-family="Arial" font-size="24px" font-style="normal" font-weight="normal" text-decoration="none" x="600" y="510">UNREGISTERED</text><text fill="#eeeeee" stroke="none" font-family="Arial" font-size="24px" font-style="normal" font-weight="normal" text-decoration="none" x="600" y="540">UNREGISTERED</text><text fill="#eeeeee" stroke="none" font-family="Arial" font-size="24px" font-style="normal" font-weight="normal" text-decoration="none" x="600" y="570">UNREGISTERED</text><text fill="#eeeeee" stroke="none" font-family="Arial" font-size="24px" font-style="normal" font-weight="normal" text-decoration="none" x="600" y="600">UNREGISTERED</text><text fill="#eeeeee" stroke="none" font-family="Arial" font-size="24px" font-style="normal" font-weight="normal" text-decoration="none" x="600" y="630">UNREGISTERED</text><g transform="translate(-54,-150) scale(1,1)"><rect fill="#C0C0C0" stroke="none" x="71" y="167" width="297.6" height="15" opacity="0.2"/></g><g transform="translate(-54,-150) scale(1,1)"><rect fill="#C0C0C0" stroke="none" x="71" y="181" width="744" height="618" opacity="0.2"/></g><g transform="translate(-54,-150) scale(1,1)"><rect fill="#ffffff" stroke="none" x="64" y="175" width="744" height="617"/></g><g transform="translate(-54,-150) scale(1,1)"><path fill="none" stroke="#000000" d="M 64 175 L 808 175 L 808 792 L 64 792 L 64 175 Z Z" stroke-miterlimit="10"/></g><g transform="translate(-54,-150) scale(1,1)"><rect fill="#ffffff" stroke="none" x="64" y="160" width="297.6" height="15"/></g><g transform="translate(-54,-150) scale(1,1)"><path fill="none" stroke="#000000" d="M 64 160 L 361.6 160 L 361.6 175 L 64 175 L 64 160 Z Z" stroke-miterlimit="10"/></g><g transform="translate(-54,-150) scale(1,1)"><rect fill="#ffffff" stroke="none" x="64" y="174" width="744" height="618"/></g><g transform="translate(-54,-150) scale(1,1)"><path fill="none" stroke="#000000" d="M 64 174 L 808 174 L 808 792 L 64 792 L 64 174 Z Z" stroke-miterlimit="10"/></g><g transform="translate(-54,-150) scale(1,1)"><g><path fill="none" stroke="none"/><text fill="#000000" stroke="none" font-family="Arial" font-size="13px" font-style="normal" font-weight="bold" text-decoration="none" x="413.602294921875" y="194.5">utilitaire</text></g></g><g transform="translate(-54,-150) scale(1,1)"><rect fill="#C0C0C0" stroke="none" x="607" y="367" width="156.36083984375" height="44" opacity="0.2"/></g><g transform="translate(-54,-150) scale(1,1)"><rect fill="#ffffff" stroke="none" x="600" y="360" width="156.36083984375" height="44"/></g><g transform="translate(-54,-150) scale(1,1)"><path fill="none" stroke="#000000" d="M 600 360 L 756.36083984375 360 L 756.36083984375 404 L 600 404 L 600 360 Z Z" stroke-miterlimit="10"/></g><g transform="translate(-54,-150) scale(1,1)"><path fill="none" stroke="#000000" d="M 600 385 L 756.36083984375 385" stroke-miterlimit="10"/></g><g transform="translate(-54,-150) scale(1,1)"><path fill="none" stroke="#000000" d="M 600 395 L 756.36083984375 395" stroke-miterlimit="10"/></g><g transform="translate(-54,-150) scale(1,1)"><g><path fill="none" stroke="none"/><text fill="#000000" stroke="none" font-family="Arial" font-size="13px" font-style="normal" font-weight="bold" text-decoration="none" x="610.260498046875" y="379.5">InvalidFormatException</text></g></g><g transform="translate(-54,-150) scale(1,1)"><rect fill="#C0C0C0" stroke="none" x="647" y="239" width="84.84814453125" height="44" opacity="0.2"/></g><g transform="translate(-54,-150) scale(1,1)"><rect fill="#ffffff" stroke="none" x="640" y="232" width="84.84814453125" height="44"/></g><g transform="translate(-54,-150) scale(1,1)"><path fill="none" stroke="#000000" d="M 640 232 L 724.84814453125 232 L 724.84814453125 276 L 640 276 L 640 232 Z Z" stroke-miterlimit="10"/></g><g transform="translate(-54,-150) scale(1,1)"><path fill="none" stroke="#000000" d="M 640 257 L 724.84814453125 257" stroke-miterlimit="10"/></g><g transform="translate(-54,-150) scale(1,1)"><path fill="none" stroke="#000000" d="M 640 267 L 724.84814453125 267" stroke-miterlimit="10"/></g><g transform="translate(-54,-150) scale(1,1)"><g><path fill="none" stroke="none"/><text fill="#000000" stroke="none" font-family="Arial" font-size="13px" font-style="normal" font-weight="bold" text-decoration="none" x="647.016845703125" y="251.5">IOException</text></g></g><g transform="translate(-54,-150) scale(1,1)"><path fill="none" stroke="#000000" d="M 679 359 L 681 277" stroke-miterlimit="10"/></g><g transform="translate(-54,-150) scale(1,1)"><path fill="#FFFFFF" stroke="none" d="M 688.9209396052515 297.52458807796046 L 681 277 L 672.087874697256 297.1140255192289"/></g><g transform="translate(-54,-150) scale(1,1)"><path fill="none" stroke="#000000" d="M 688.9209396052515 297.52458807796046 L 681 277 L 672.087874697256 297.1140255192289 L 688.9209396052515 297.52458807796046" stroke-miterlimit="10"/></g><g transform="translate(-54,-150) scale(1,1)"><rect fill="#C0C0C0" stroke="none" x="223" y="375" width="328.7822265625" height="400" opacity="0.2"/></g><g transform="translate(-54,-150) scale(1,1)"><rect fill="#ffffff" stroke="none" x="216" y="368" width="328.7822265625" height="400"/></g><g transform="translate(-54,-150) scale(1,1)"><path fill="none" stroke="#000000" d="M 216 368 L 544.7822265625 368 L 544.7822265625 768 L 216 768 L 216 368 Z Z" stroke-miterlimit="10"/></g><g transform="translate(-54,-150) scale(1,1)"><path fill="none" stroke="#000000" d="M 216 393 L 544.7822265625 393" stroke-miterlimit="10"/></g><g transform="translate(-54,-150) scale(1,1)"><path fill="none" stroke="#000000" d="M 216 416 L 544.7822265625 416" stroke-miterlimit="10"/></g><g transform="translate(-54,-150) scale(1,1)"><g><path fill="none" stroke="none"/><text fill="#000000" stroke="none" font-family="Arial" font-size="13px" font-style="normal" font-weight="bold" text-decoration="none" x="333.421630859375" y="387.5">ListeObservable</text></g></g><g transform="translate(-54,-150) scale(1,1)"><g><path fill="none" stroke="none"/><text fill="#000000" stroke="none" font-family="Arial" font-size="13px" font-style="normal" font-weight="normal" text-decoration="none" x="221" y="410.5">-liste: List&lt;E&gt;</text></g></g><g transform="translate(-54,-150) scale(1,1)"><g><path fill="none" stroke="none"/><text fill="#000000" stroke="none" font-family="Arial" font-size="13px" font-style="normal" font-weight="normal" text-decoration="none" x="221" y="433.5">+size(): int</text></g></g><g transform="translate(-54,-150) scale(1,1)"><g><path fill="none" stroke="none"/><text fill="#000000" stroke="none" font-family="Arial" font-size="13px" font-style="normal" font-weight="normal" text-decoration="none" x="221" y="448.5">+isEmpty(): boolean</text></g></g><g transform="translate(-54,-150) scale(1,1)"><g><path fill="none" stroke="none"/><text fill="#000000" stroke="none" font-family="Arial" font-size="13px" font-style="normal" font-weight="normal" text-decoration="none" x="221" y="463.5">+contains(o: Object): boolean</text></g></g><g transform="translate(-54,-150) scale(1,1)"><g><path fill="none" stroke="none"/><text fill="#000000" stroke="none" font-family="Arial" font-size="13px" font-style="normal" font-weight="normal" text-decoration="none" x="221" y="478.5">+iterator(): Iterator&lt;E&gt;</text></g></g><g transform="translate(-54,-150) scale(1,1)"><g><path fill="none" stroke="none"/><text fill="#000000" stroke="none" font-family="Arial" font-size="13px" font-style="normal" font-weight="normal" text-decoration="none" x="221" y="493.5">+toArray(): Object[]</text></g></g><g transform="translate(-54,-150) scale(1,1)"><g><path fill="none" stroke="none"/><text fill="#000000" stroke="none" font-family="Arial" font-size="13px" font-style="normal" font-weight="normal" text-decoration="none" x="221" y="508.5">+toArray(a: T[]): &lt;T&gt; T[]</text></g></g><g transform="translate(-54,-150) scale(1,1)"><g><path fill="none" stroke="none"/><text fill="#000000" stroke="none" font-family="Arial" font-size="13px" font-style="normal" font-weight="normal" text-decoration="none" x="221" y="523.5">+add(e: E)</text></g></g><g transform="translate(-54,-150) scale(1,1)"><g><path fill="none" stroke="none"/><text fill="#000000" stroke="none" font-family="Arial" font-size="13px" font-style="normal" font-weight="normal" text-decoration="none" x="221" y="538.5">+remove(o: Object): boolean</text></g></g><g transform="translate(-54,-150) scale(1,1)"><g><path fill="none" stroke="none"/><text fill="#000000" stroke="none" font-family="Arial" font-size="13px" font-style="normal" font-weight="normal" text-decoration="none" x="221" y="553.5">+containsAll(c: Collection&lt;?&gt;): boolean</text></g></g><g transform="translate(-54,-150) scale(1,1)"><g><path fill="none" stroke="none"/><text fill="#000000" stroke="none" font-family="Arial" font-size="13px" font-style="normal" font-weight="normal" text-decoration="none" x="221" y="568.5">+addAll(c: Collection&lt;? extends E&gt;): boolean</text></g></g><g transform="translate(-54,-150) scale(1,1)"><g><path fill="none" stroke="none"/><text fill="#000000" stroke="none" font-family="Arial" font-size="13px" font-style="normal" font-weight="normal" text-decoration="none" x="221" y="583.5">+addAll(index: int, c: Collection&lt;? extends E&gt;): boolean</text></g></g><g transform="translate(-54,-150) scale(1,1)"><g><path fill="none" stroke="none"/><text fill="#000000" stroke="none" font-family="Arial" font-size="13px" font-style="normal" font-weight="normal" text-decoration="none" x="221" y="598.5">+removeAll(c: Collection&lt;?&gt;): boolean</text></g></g><g transform="translate(-54,-150) scale(1,1)"><g><path fill="none" stroke="none"/><text fill="#000000" stroke="none" font-family="Arial" font-size="13px" font-style="normal" font-weight="normal" text-decoration="none" x="221" y="613.5">+retainAll(c: Collection&lt;?&gt;): boolean</text></g></g><g transform="translate(-54,-150) scale(1,1)"><g><path fill="none" stroke="none"/><text fill="#000000" stroke="none" font-family="Arial" font-size="13px" font-style="normal" font-weight="normal" text-decoration="none" x="221" y="628.5">+clear()</text></g></g><g transform="translate(-54,-150) scale(1,1)"><g><path fill="none" stroke="none"/><text fill="#000000" stroke="none" font-family="Arial" font-size="13px" font-style="normal" font-weight="normal" text-decoration="none" x="221" y="643.5">+get(index: int): E</text></g></g><g transform="translate(-54,-150) scale(1,1)"><g><path fill="none" stroke="none"/><text fill="#000000" stroke="none" font-family="Arial" font-size="13px" font-style="normal" font-weight="normal" text-decoration="none" x="221" y="658.5">+set(index: int, element: E): E</text></g></g><g transform="translate(-54,-150) scale(1,1)"><g><path fill="none" stroke="none"/><text fill="#000000" stroke="none" font-family="Arial" font-size="13px" font-style="normal" font-weight="normal" text-decoration="none" x="221" y="673.5">+add(index: int, element: E)</text></g></g><g transform="translate(-54,-150) scale(1,1)"><g><path fill="none" stroke="none"/><text fill="#000000" stroke="none" font-family="Arial" font-size="13px" font-style="normal" font-weight="normal" text-decoration="none" x="221" y="688.5">+remove(index: int): E</text></g></g><g transform="translate(-54,-150) scale(1,1)"><g><path fill="none" stroke="none"/><text fill="#000000" stroke="none" font-family="Arial" font-size="13px" font-style="normal" font-weight="normal" text-decoration="none" x="221" y="703.5">+indexOf(o: Object): int</text></g></g><g transform="translate(-54,-150) scale(1,1)"><g><path fill="none" stroke="none"/><text fill="#000000" stroke="none" font-family="Arial" font-size="13px" font-style="normal" font-weight="normal" text-decoration="none" x="221" y="718.5">+lastIndexOf(o: Object): int</text></g></g><g transform="translate(-54,-150) scale(1,1)"><g><path fill="none" stroke="none"/><text fill="#000000" stroke="none" font-family="Arial" font-size="13px" font-style="normal" font-weight="normal" text-decoration="none" x="221" y="733.5">+listIterator(): ListIterator&lt;E&gt;</text></g></g><g transform="translate(-54,-150) scale(1,1)"><g><path fill="none" stroke="none"/><text fill="#000000" stroke="none" font-family="Arial" font-size="13px" font-style="normal" font-weight="normal" text-decoration="none" x="221" y="748.5">+listIterator(index: int): ListIterator&lt;E&gt;</text></g></g><g transform="translate(-54,-150) scale(1,1)"><g><path fill="none" stroke="none"/><text fill="#000000" stroke="none" font-family="Arial" font-size="13px" font-style="normal" font-weight="normal" text-decoration="none" x="221" y="763.5">+subList(fromIndex: int, toIndex: int): List&lt;E&gt;</text></g></g><g transform="translate(-54,-150) scale(1,1)"><rect fill="#C0C0C0" stroke="none" x="247" y="207" width="50.919921875" height="44" opacity="0.2"/></g><g transform="translate(-54,-150) scale(1,1)"><rect fill="#ffffff" stroke="none" x="240" y="200" width="50.919921875" height="44"/></g><g transform="translate(-54,-150) scale(1,1)"><path fill="none" stroke="#000000" d="M 240 200 L 290.919921875 200 L 290.919921875 244 L 240 244 L 240 200 Z Z" stroke-miterlimit="10"/></g><g transform="translate(-54,-150) scale(1,1)"><path fill="none" stroke="#000000" d="M 240 225 L 290.919921875 225" stroke-miterlimit="10"/></g><g transform="translate(-54,-150) scale(1,1)"><path fill="none" stroke="#000000" d="M 240 235 L 290.919921875 235" stroke-miterlimit="10"/></g><g transform="translate(-54,-150) scale(1,1)"><g><path fill="none" stroke="none"/><text fill="#000000" stroke="none" font-family="Arial" font-size="13px" font-style="normal" font-weight="bold" text-decoration="none" x="250.64453125" y="219.5">Sujet</text></g></g><g transform="translate(-54,-150) scale(1,1)"><path fill="none" stroke="#000000" d="M 313 367 L 273 245" stroke-miterlimit="10"/></g><g transform="translate(-54,-150) scale(1,1)"><path fill="#FFFFFF" stroke="none" d="M 287.3323925549709 261.69079158249286 L 273 245 L 271.33236005489545 266.93670387759954"/></g><g transform="translate(-54,-150) scale(1,1)"><path fill="none" stroke="#000000" d="M 287.3323925549709 261.69079158249286 L 273 245 L 271.33236005489545 266.93670387759954 L 287.3323925549709 261.69079158249286" stroke-miterlimit="10"/></g><g transform="translate(-54,-150) scale(1,1)"><rect fill="#C0C0C0" stroke="none" x="407" y="225" width="149.6689453125" height="47" opacity="0.2"/></g><g transform="translate(-54,-150) scale(1,1)"><rect fill="#C0C0C0" stroke="none" x="547.998046875" y="207" width="17.6708984375" height="22" opacity="0.2"/></g><g transform="translate(-54,-150) scale(1,1)"><rect fill="#ffffff" stroke="none" x="400" y="218" width="149.6689453125" height="47"/></g><g transform="translate(-54,-150) scale(1,1)"><path fill="none" stroke="#000000" d="M 400 218 L 549.6689453125 218 L 549.6689453125 265 L 400 265 L 400 218 Z Z" stroke-miterlimit="10"/></g><g transform="translate(-54,-150) scale(1,1)"><path fill="none" stroke="#000000" d="M 400 256 L 549.6689453125 256" stroke-miterlimit="10"/></g><g transform="translate(-54,-150) scale(1,1)"><g><path fill="none" stroke="none"/><text fill="#000000" stroke="none" font-family="Arial" font-size="13px" font-style="normal" font-weight="normal" text-decoration="none" x="442.674072265625" y="235.5">«interface»</text></g></g><g transform="translate(-54,-150) scale(1,1)"><g><path fill="none" stroke="none"/><text fill="#000000" stroke="none" font-family="Arial" font-size="13px" font-style="normal" font-weight="bold" text-decoration="none" x="464.719482421875" y="250.5">List</text></g></g><g transform="translate(-54,-150) scale(1,1)"><rect fill="#ffffff" stroke="none" x="540.998046875" y="200" width="17.6708984375" height="22"/></g><g transform="translate(-54,-150) scale(1,1)"><path fill="none" stroke="#000000" d="M 540.998046875 200 L 558.6689453125 200 L 558.6689453125 222 L 540.998046875 222 L 540.998046875 200 Z Z" stroke-miterlimit="10" stroke-dasharray="3"/></g><g transform="translate(-54,-150) scale(1,1)"><g><path fill="none" stroke="none"/><text fill="#000000" stroke="none" font-family="Arial" font-size="13px" font-style="normal" font-weight="normal" text-decoration="none" x="545.998046875" y="217.5">E</text></g></g><g transform="translate(-54,-150) scale(1,1)"><path fill="none" stroke="#000000" d="M 439 367 L 469 266" stroke-miterlimit="10" stroke-dasharray="3"/></g><g transform="translate(-54,-150) scale(1,1)"><path fill="#FFFFFF" stroke="none" d="M 471.28321151683963 287.8812007250373 L 469 266 L 455.14212893326265 283.0868197596184"/></g><g transform="translate(-54,-150) scale(1,1)"><path fill="none" stroke="#000000" d="M 471.28321151683963 287.8812007250373 L 469 266 L 455.14212893326265 283.0868197596184 L 471.28321151683963 287.8812007250373" stroke-miterlimit="10"/></g></g></svg>