<svg version="1.1" xmlns="http://www.w3.org/2000/svg" xmlns:xlink="http://www.w3.org/1999/xlink" width="652" height="596"><defs/><g><g transform="translate(-46,-38) scale(1,1)"><rect fill="#C0C0C0" stroke="none" x="247" y="327" width="208" height="304" opacity="0.2"/></g><g transform="translate(-46,-38) scale(1,1)"><rect fill="#ffffff" stroke="none" x="240" y="320" width="208" height="304"/></g><g transform="translate(-46,-38) scale(1,1)"><path fill="none" stroke="#000000" d="M 240 320 L 448 320 L 448 624 L 240 624 L 240 320 Z Z" stroke-miterlimit="10"/></g><g transform="translate(-46,-38) scale(1,1)"><g><path fill="none" stroke="none"/><text fill="#000000" stroke="none" font-family="Arial" font-size="13px" font-style="normal" font-weight="bold" text-decoration="none" x="303.530517578125" y="339.5">SpeedJumper</text></g></g><g transform="translate(-46,-38) scale(1,1)"><rect fill="#C0C0C0" stroke="none" x="351" y="191" width="34.23124999999999" height="15" opacity="0.2"/></g><g transform="translate(-46,-38) scale(1,1)"><rect fill="#C0C0C0" stroke="none" x="351" y="205" width="85.578125" height="25" opacity="0.2"/></g><g transform="translate(-46,-38) scale(1,1)"><rect fill="#ffffff" stroke="none" x="344" y="199" width="85.578125" height="24"/></g><g transform="translate(-46,-38) scale(1,1)"><path fill="none" stroke="#000000" d="M 344 199 L 429.578125 199 L 429.578125 223 L 344 223 L 344 199 Z Z" stroke-miterlimit="10"/></g><g transform="translate(-46,-38) scale(1,1)"><rect fill="#ffffff" stroke="none" x="344" y="184" width="34.23124999999999" height="15"/></g><g transform="translate(-46,-38) scale(1,1)"><path fill="none" stroke="#000000" d="M 344 184 L 378.23125 184 L 378.23125 199 L 344 199 L 344 184 Z Z" stroke-miterlimit="10"/></g><g transform="translate(-46,-38) scale(1,1)"><rect fill="#ffffff" stroke="none" x="344" y="198" width="85.578125" height="25"/></g><g transform="translate(-46,-38) scale(1,1)"><path fill="none" stroke="#000000" d="M 344 198 L 429.578125 198 L 429.578125 223 L 344 223 L 344 198 Z Z" stroke-miterlimit="10"/></g><g transform="translate(-46,-38) scale(1,1)"><g><path fill="none" stroke="none"/><text fill="#000000" stroke="none" font-family="Arial" font-size="13px" font-style="normal" font-weight="bold" text-decoration="none" x="351.013671875" y="218.5">Jouer au jeu</text></g></g><g transform="translate(-46,-38) scale(1,1)"><path fill="#ffffff" stroke="none" d="M 145.49162571022728 177.68 C 145.49162571022728 172.886167936 149.37746803517274 169 154.1708984375 169 C 158.96432883982726 169 162.85017116477272 172.886167936 162.85017116477272 177.68 C 162.85017116477272 182.47383206400002 158.96432883982726 186.36 154.1708984375 186.36 C 149.37746803517274 186.36 145.49162571022728 182.47383206400002 145.49162571022728 177.68 Z"/></g><g transform="translate(-46,-38) scale(1,1)"><path fill="none" stroke="#000000" d="M 145.49162571022728 177.68 C 145.49162571022728 172.886167936 149.37746803517274 169 154.1708984375 169 C 158.96432883982726 169 162.85017116477272 172.886167936 162.85017116477272 177.68 C 162.85017116477272 182.47383206400002 158.96432883982726 186.36 154.1708984375 186.36 C 149.37746803517274 186.36 145.49162571022728 182.47383206400002 145.49162571022728 177.68 Z" stroke-miterlimit="10"/></g><g transform="translate(-46,-38) scale(1,1)"><path fill="none" stroke="#000000" d="M 154.1708984375 186.36 L 154.1708984375 203.64" stroke-miterlimit="10"/></g><g transform="translate(-46,-38) scale(1,1)"><path fill="none" stroke="#000000" d="M 144.98108025568183 192.84 L 163.36071661931817 192.84" stroke-miterlimit="10"/></g><g transform="translate(-46,-38) scale(1,1)"><path fill="none" stroke="#000000" d="M 154.1708984375 203.64 L 141.40726207386365 221" stroke-miterlimit="10"/></g><g transform="translate(-46,-38) scale(1,1)"><path fill="none" stroke="#000000" d="M 154.1708984375 203.64 L 166.93453480113635 221" stroke-miterlimit="10"/></g><g transform="translate(-46,-38) scale(1,1)"><g><path fill="none" stroke="none"/><text fill="#000000" stroke="none" font-family="Arial" font-size="13px" font-style="normal" font-weight="bold" text-decoration="none" x="134.29638671875" y="241.5">Joueur</text></g></g><g transform="translate(-46,-38) scale(1,1)"><path fill="none" stroke="#000000" d="M 181 207 L 343 204" stroke-miterlimit="10" stroke-dasharray="3"/></g><g transform="translate(-46,-38) scale(1,1)"><path fill="none" stroke="#000000" d="M 332.9170079347985 208.39696156602307 L 343 204 L 332.76112659609436 199.97936927599744" stroke-miterlimit="10"/></g><g transform="translate(-46,-38) scale(1,1)"><path fill="#ffffff" stroke="none" d="M 73.49162571022727 497.68 C 73.49162571022727 492.886167936 77.37746803517273 489 82.1708984375 489 C 86.96432883982727 489 90.85017116477273 492.886167936 90.85017116477273 497.68 C 90.85017116477273 502.473832064 86.96432883982727 506.36 82.1708984375 506.36 C 77.37746803517273 506.36 73.49162571022727 502.473832064 73.49162571022727 497.68 Z"/></g><g transform="translate(-46,-38) scale(1,1)"><path fill="none" stroke="#000000" d="M 73.49162571022727 497.68 C 73.49162571022727 492.886167936 77.37746803517273 489 82.1708984375 489 C 86.96432883982727 489 90.85017116477273 492.886167936 90.85017116477273 497.68 C 90.85017116477273 502.473832064 86.96432883982727 506.36 82.1708984375 506.36 C 77.37746803517273 506.36 73.49162571022727 502.473832064 73.49162571022727 497.68 Z" stroke-miterlimit="10"/></g><g transform="translate(-46,-38) scale(1,1)"><path fill="none" stroke="#000000" d="M 82.1708984375 506.36 L 82.1708984375 523.64" stroke-miterlimit="10"/></g><g transform="translate(-46,-38) scale(1,1)"><path fill="none" stroke="#000000" d="M 72.98108025568182 512.84 L 91.36071661931818 512.84" stroke-miterlimit="10"/></g><g transform="translate(-46,-38) scale(1,1)"><path fill="none" stroke="#000000" d="M 82.1708984375 523.64 L 69.40726207386363 541" stroke-miterlimit="10"/></g><g transform="translate(-46,-38) scale(1,1)"><path fill="none" stroke="#000000" d="M 82.1708984375 523.64 L 94.93453480113637 541" stroke-miterlimit="10"/></g><g transform="translate(-46,-38) scale(1,1)"><g><path fill="none" stroke="none"/><text fill="#000000" stroke="none" font-family="Arial" font-size="13px" font-style="normal" font-weight="bold" text-decoration="none" x="62.29638671875" y="561.5">Joueur</text></g></g><g transform="translate(-46,-38) scale(1,1)"><path fill="#C0C0C0" stroke="none" d="M 303 409 C 303 394.6405952 328.9674816 383 361 383 C 393.0325184 383 419 394.6405952 419 409 C 419 423.3594048 393.0325184 435 361 435 C 328.9674816 435 303 423.3594048 303 409 Z" opacity="0.2"/></g><g transform="translate(-46,-38) scale(1,1)"><path fill="#ffffff" stroke="none" d="M 296 402 C 296 387.6405952 321.9674816 376 354 376 C 386.0325184 376 412 387.6405952 412 402 C 412 416.3594048 386.0325184 428 354 428 C 321.9674816 428 296 416.3594048 296 402 Z"/></g><g transform="translate(-46,-38) scale(1,1)"><path fill="none" stroke="#000000" d="M 296 402 C 296 387.6405952 321.9674816 376 354 376 C 386.0325184 376 412 387.6405952 412 402 C 412 416.3594048 386.0325184 428 354 428 C 321.9674816 428 296 416.3594048 296 402 Z" stroke-miterlimit="10"/></g><g transform="translate(-46,-38) scale(1,1)"><g><path fill="none" stroke="none"/><text fill="#000000" stroke="none" font-family="Arial" font-size="13px" font-style="normal" font-weight="bold" text-decoration="none" x="346.049560546875" y="402.5">Se</text><text fill="#000000" stroke="none" font-family="Arial" font-size="13px" font-style="normal" font-weight="bold" text-decoration="none" x="329.06640625" y="415.5">déplacer</text></g></g><g transform="translate(-46,-38) scale(1,1)"><path fill="#C0C0C0" stroke="none" d="M 311 496 C 311 486.6111584 333.6096176 479 361.5 479 C 389.3903824 479 412 486.6111584 412 496 C 412 505.3888416 389.3903824 513 361.5 513 C 333.6096176 513 311 505.3888416 311 496 Z" opacity="0.2"/></g><g transform="translate(-46,-38) scale(1,1)"><path fill="#ffffff" stroke="none" d="M 304 489 C 304 479.6111584 326.6096176 472 354.5 472 C 382.3903824 472 405 479.6111584 405 489 C 405 498.3888416 382.3903824 506 354.5 506 C 326.6096176 506 304 498.3888416 304 489 Z"/></g><g transform="translate(-46,-38) scale(1,1)"><path fill="none" stroke="#000000" d="M 304 489 C 304 479.6111584 326.6096176 472 354.5 472 C 382.3903824 472 405 479.6111584 405 489 C 405 498.3888416 382.3903824 506 354.5 506 C 326.6096176 506 304 498.3888416 304 489 Z" stroke-miterlimit="10"/></g><g transform="translate(-46,-38) scale(1,1)"><g><path fill="none" stroke="none"/><text fill="#000000" stroke="none" font-family="Arial" font-size="13px" font-style="normal" font-weight="bold" text-decoration="none" x="335.34912109375" y="496">Sauter</text></g></g><g transform="translate(-46,-38) scale(1,1)"><path fill="#C0C0C0" stroke="none" d="M 303 577 C 303 562.6405952 331.6537728 551 367 551 C 402.3462272 551 431 562.6405952 431 577 C 431 591.3594048 402.3462272 603 367 603 C 331.6537728 603 303 591.3594048 303 577 Z" opacity="0.2"/></g><g transform="translate(-46,-38) scale(1,1)"><path fill="#ffffff" stroke="none" d="M 296 570 C 296 555.6405952 324.6537728 544 360 544 C 395.3462272 544 424 555.6405952 424 570 C 424 584.3594048 395.3462272 596 360 596 C 324.6537728 596 296 584.3594048 296 570 Z"/></g><g transform="translate(-46,-38) scale(1,1)"><path fill="none" stroke="#000000" d="M 296 570 C 296 555.6405952 324.6537728 544 360 544 C 395.3462272 544 424 555.6405952 424 570 C 424 584.3594048 395.3462272 596 360 596 C 324.6537728 596 296 584.3594048 296 570 Z" stroke-miterlimit="10"/></g><g transform="translate(-46,-38) scale(1,1)"><g><path fill="none" stroke="none"/><text fill="#000000" stroke="none" font-family="Arial" font-size="13px" font-style="normal" font-weight="bold" text-decoration="none" x="329.655029296875" y="570.5">Combattre</text><text fill="#000000" stroke="none" font-family="Arial" font-size="13px" font-style="normal" font-weight="bold" text-decoration="none" x="323.1455078125" y="583.5">des enemies</text></g></g><g transform="translate(-46,-38) scale(1,1)"><path fill="none" stroke="#000000" d="M 109 514 L 295 429" stroke-miterlimit="10"/></g><g transform="translate(-46,-38) scale(1,1)"><path fill="none" stroke="#000000" d="M 109 523 L 303 496" stroke-miterlimit="10"/></g><g transform="translate(-46,-38) scale(1,1)"><path fill="none" stroke="#000000" d="M 109 531 L 295 560" stroke-miterlimit="10"/></g><g transform="translate(-46,-38) scale(1,1)"><path fill="#ffffff" stroke="none" d="M 520 384 L 677 384 L 687 394 L 687 503 L 520 503 L 520 384"/></g><g transform="translate(-46,-38) scale(1,1)"><path fill="none" stroke="#000000" d="M 520 384 L 677 384 L 687 394 L 687 503 L 520 503 L 520 384 L 520 384" stroke-miterlimit="10"/></g><g transform="translate(-46,-38) scale(1,1)"><path fill="none" stroke="#000000" d="M 677 384 L 677 394 L 687 394 L 677 384" stroke-miterlimit="10"/></g><g transform="translate(-46,-38) scale(1,1)"><g><path fill="none" stroke="none"/><text fill="#000000" stroke="none" font-family="Arial" font-size="20px" font-style="normal" font-weight="normal" text-decoration="none" x="525" y="409">Détail du paquet</text><text fill="#000000" stroke="none" font-family="Arial" font-size="20px" font-style="normal" font-weight="normal" text-decoration="none" x="525" y="429">"Jouer au jeu"</text></g></g><g transform="translate(-46,-38) scale(1,1)"><path fill="none" stroke="#000000" d="M 449 461 L 519 453" stroke-miterlimit="10" stroke-dasharray="3"/></g><g transform="translate(-46,-38) scale(1,1)"><path fill="none" stroke="#000000" d="M 343 204 L 181 207" stroke-miterlimit="10" stroke-dasharray="3"/></g><g transform="translate(-46,-38) scale(1,1)"><path fill="none" stroke="#000000" d="M 191.08299206520147 202.60303843397693 L 181 207 L 191.23887340390564 211.0206307240026" stroke-miterlimit="10"/></g><g transform="translate(-46,-38) scale(1,1)"><path fill="#ffffff" stroke="none" d="M 200 48 L 349 48 L 359 58 L 359 123 L 200 123 L 200 48"/></g><g transform="translate(-46,-38) scale(1,1)"><path fill="none" stroke="#000000" d="M 200 48 L 349 48 L 359 58 L 359 123 L 200 123 L 200 48 L 200 48" stroke-miterlimit="10"/></g><g transform="translate(-46,-38) scale(1,1)"><path fill="none" stroke="#000000" d="M 349 48 L 349 58 L 359 58 L 349 48" stroke-miterlimit="10"/></g><g transform="translate(-46,-38) scale(1,1)"><g><path fill="none" stroke="none"/><text fill="#000000" stroke="none" font-family="Arial" font-size="13px" font-style="normal" font-weight="normal" text-decoration="none" x="205" y="66">On ne distingue qu'un</text><text fill="#000000" stroke="none" font-family="Arial" font-size="13px" font-style="normal" font-weight="normal" text-decoration="none" x="205" y="79">seul cas d'utilisation</text><text fill="#000000" stroke="none" font-family="Arial" font-size="13px" font-style="normal" font-weight="normal" text-decoration="none" x="205" y="92">fondamental : Jouer au</text><text fill="#000000" stroke="none" font-family="Arial" font-size="13px" font-style="normal" font-weight="normal" text-decoration="none" x="205" y="105">jeu. Mais on peut le</text><text fill="#000000" stroke="none" font-family="Arial" font-size="13px" font-style="normal" font-weight="normal" text-decoration="none" x="205" y="118">décomposer.</text></g></g><g transform="translate(-46,-38) scale(1,1)"><path fill="none" stroke="#000000" d="M 274 125 L 262 205" stroke-miterlimit="10" stroke-dasharray="3"/></g></g></svg>